<?xml version="1.0" encoding="utf-8"?>
<!-- Generator: Adobe Illustrator 16.0.0, SVG Export Plug-In . SVG Version: 6.00 Build 0)  -->
<!DOCTYPE svg PUBLIC "-//W3C//DTD SVG 1.1//EN" "http://www.w3.org/Graphics/SVG/1.1/DTD/svg11.dtd">
<svg version="1.1" id="Calque_1" xmlns="http://www.w3.org/2000/svg" xmlns:xlink="http://www.w3.org/1999/xlink" x="0px" y="0px"
	 width="563.562px" height="178.5px" viewBox="0 0 563.562 178.5" enable-background="new 0 0 563.562 178.5" xml:space="preserve">
<g>
	<rect fill="#82929A" width="563.447" height="178.5"/>
</g>
<path fill="none" stroke="#FFFFFF" stroke-width="0.25" stroke-miterlimit="10" d="M0.115,166.955c0,0,132.254,0,215.871,0
	c115.354,0,189.461-21.455,347.576-21.455"/>
<g>
	<g>
		<g>
			<g>
				<path fill="#FFFFFF" d="M562.788,157.546c0.833,0.023,0.534-0.026,0.659-0.03C562.054,157.483,562.823,157.561,562.788,157.546z
					"/>
				<polygon fill="#FFFFFF" points="549.044,157.567 549.288,157.518 547.263,157.637 				"/>
				<path fill="#FFFFFF" d="M536.189,157.527c1.222,0.304,4.658-0.046,6.95,0.066l0.378,0.059l1.03-0.198
					C541.764,157.459,538.151,157.613,536.189,157.527z"/>
				<path fill="#FFFFFF" d="M529.315,156.743c0.427,0.146-1.481,0.098,1.601,0.068c-0.153-0.021-0.2-0.027-0.29-0.039
					C530.347,156.766,529.965,156.757,529.315,156.743z"/>
				<path fill="#FFFFFF" d="M530.625,156.771C531.98,156.784,529.736,156.643,530.625,156.771L530.625,156.771z"/>
				<path fill="#FFFFFF" d="M524.368,156.766l1.782-0.11c-0.376-0.093-1.966-0.14-1.377-0.195
					C522.943,156.505,523.323,156.607,524.368,156.766z"/>
				<path fill="#FFFFFF" d="M522.684,157.065l0.923-0.077C523.444,156.954,523.199,156.943,522.684,157.065z"/>
				<path fill="#FFFFFF" d="M525.565,156.885l-1.958,0.103c0.26,0.065,0.291,0.193,0.899-0.037
					C524.349,157.066,524.733,156.957,525.565,156.885z"/>
				<path fill="#FFFFFF" d="M526.677,156.955c1.003,0.093,2.298,0.151,0.51,0.267C530.599,157.191,530.091,156.945,526.677,156.955z
					"/>
				<path fill="#FFFFFF" d="M535.54,157.852l1.339,0.082l1.154-0.108C537.456,157.879,535.455,157.755,535.54,157.852z"/>
				<path fill="#FFFFFF" d="M513.242,156.697c-0.107,0.1,0.609,0.25,0.747,0.371l1.314-0.135
					C514.624,156.879,513.337,156.841,513.242,156.697z"/>
				<path fill="#FFFFFF" d="M513.989,157.068l-1.966,0.211C513.785,157.259,514.104,157.172,513.989,157.068z"/>
				<path fill="#FFFFFF" d="M522.378,157.522c0,0,0.807-0.11,1.615-0.187c0.808-0.071,1.615-0.143,1.615-0.143
					s-0.964,0.072-1.928,0.144c-0.963,0.104-1.926,0.207-1.926,0.207L522.378,157.522z"/>
				<polygon fill="#FFFFFF" points="505.705,156.81 506.814,156.546 504.836,156.952 				"/>
				<path fill="#FFFFFF" d="M500.708,156.946c0.818-0.229-1.152-0.345-0.282-0.492c-1.358,0.057-2.51,0.265-3.545,0.457
					C497.985,156.793,499.169,156.798,500.708,156.946z"/>
				<path fill="#FFFFFF" d="M495.139,157.198c0.552-0.066,1.121-0.174,1.741-0.288C496.293,156.974,495.716,157.059,495.139,157.198
					z"/>
				<path fill="#FFFFFF" d="M508.663,157.305c-0.155-0.059-0.455-0.215-1.564-0.264l0.787,0.277
					C508.123,157.315,508.39,157.31,508.663,157.305z"/>
				<path fill="#FFFFFF" d="M507.914,157.328l-0.028-0.009c-0.842,0.011-1.426,0.019-1.676,0.022
					C506.424,157.34,506.937,157.335,507.914,157.328z"/>
				<path fill="#FFFFFF" d="M508.858,157.302c-0.072,0.001-0.125,0.002-0.195,0.003
					C508.738,157.332,508.784,157.341,508.858,157.302z"/>
				<path fill="#FFFFFF" d="M517.207,157.432c-1.154,0.172-3.561,0.411-1.218,0.566
					C516.813,157.791,515.471,157.699,517.207,157.432z"/>
				<path fill="#FFFFFF" d="M509.835,157.639l2.096,0.008c-0.044-0.072-0.426-0.171,0.145-0.263L509.835,157.639z"/>
				<polygon fill="#FFFFFF" points="508.814,157.759 509.835,157.639 509.058,157.635 				"/>
				<path fill="#FFFFFF" d="M498.744,157.422c-0.898,0.162-1.888,0.2-3.005,0.251c1.202,0.034,2.442,0.035,3.619,0.003
					C499.519,157.572,500.028,157.38,498.744,157.422z"/>
				<path fill="#FFFFFF" d="M503.202,157.404c-0.063,0.007-0.142,0.016-0.201,0.022
					C503.125,157.449,503.225,157.455,503.202,157.404z"/>
				<path fill="#FFFFFF" d="M484.737,158.064c0.062,0.019,0.117,0.037,0.181,0.057c0.012-0.022,0.021-0.042,0.037-0.064
					L484.737,158.064z"/>
				<path fill="#FFFFFF" d="M499.562,157.731c0.902,0.038,1.438-0.055,1.946-0.164c-0.672,0.048-1.385,0.087-2.15,0.109
					C499.285,157.724,499.273,157.754,499.562,157.731z"/>
				<path fill="#FFFFFF" d="M492.074,157.426c0.474,0.06,1.009,0.106,1.57,0.147C493.18,157.479,492.236,157.333,492.074,157.426z"
					/>
				<path fill="#FFFFFF" d="M502.694,157.348c0.045-0.006,0.086-0.011,0.134-0.017C502.53,157.271,502.568,157.303,502.694,157.348z
					"/>
				<path fill="#FFFFFF" d="M502.694,157.348c-0.462,0.056-0.823,0.141-1.186,0.219c0.547-0.039,1.054-0.084,1.492-0.141
					C502.888,157.407,502.776,157.376,502.694,157.348z"/>
				<path fill="#FFFFFF" d="M481.543,160.584c0.139-0.354,2.482-0.806,4.54-0.579c1.991-0.374,0.622-1.358-1.166-1.885
					c-0.055,0.148-0.047,0.28-2.103,0.588c0.735,0.148,4.607,0.173,2.882,0.57c-2.725,0.332-2.247,0.014-3.588-0.09
					c1.154,0.353-3.443,0.821-2.811,1.42l2.384-0.374C481.733,160.328,480.873,160.54,481.543,160.584z"/>
				<path fill="#FFFFFF" d="M488.857,157.958l0.85-0.071c-0.975-0.03-1.675-0.109-2.968-0.31c-1.406,0.227-1.692,0.365-1.784,0.48
					l4.19-0.162L488.857,157.958z"/>
				<path fill="#FFFFFF" d="M493.531,157.781c-0.647,0.355-2.685,0.568-1.413,0.898c2.496-0.108,1.736-0.342,3.222-0.532
					c-4.029,0.202,1.148-0.219-1.775-0.329c0.79-0.079,1.502-0.114,2.175-0.146c-0.729-0.021-1.432-0.055-2.095-0.101
					c0.037,0.007,0.063,0.013,0.094,0.019l0.02-0.002l-0.004,0.005c0.176,0.038,0.234,0.062,0.037,0.042
					c-0.013,0.005-0.063,0.008-0.084,0.009c-0.024,0.048-0.098,0.091-0.176,0.133c-1.172-0.039-0.188-0.083,0.176-0.133
					c0.013-0.017,0.043-0.033,0.047-0.052l-0.016-0.003l-4.031,0.295C490.564,157.912,491.634,157.872,493.531,157.781z"/>
				<path fill="#FFFFFF" d="M513.857,158.661c-0.126-0.019-0.121-0.039-0.131-0.059
					C513.466,158.646,513.368,158.673,513.857,158.661z"/>
				<path fill="#FFFFFF" d="M512.192,158.558c0.292-0.05,0.532-0.171,1.486-0.178c0.83,0.052,0.001,0.132,0.048,0.222
					c0.571-0.098,2.004-0.271,0.196-0.34l-0.283,0.048c-1.628-0.033-3.729-0.324-3.447-0.375
					C510.676,158.179,511.102,158.35,512.192,158.558z"/>
				<path fill="#FFFFFF" d="M502.756,158.312l-3.354,0.268l1.724,0.215l-0.094-0.162
					C502.947,158.63,502.525,158.444,502.756,158.312z"/>
				<polygon fill="#FFFFFF" points="484.342,157.903 484.766,157.499 482.856,158.134 				"/>
				<polygon fill="#FFFFFF" points="479.978,158.163 480.12,157.812 478.978,158.075 				"/>
				<path fill="#FFFFFF" d="M233.915,171.125l-0.988,0.04C233.392,171.146,233.692,171.134,233.915,171.125z"/>
				<path fill="#FFFFFF" d="M241.065,171.105l0.175-0.063C240.909,171.078,240.773,171.103,241.065,171.105z"/>
				<path fill="#FFFFFF" d="M372.936,164.695c-1.454-0.294-3.084-0.774-2.889-0.339l0.462,0.409
					C371.508,164.632,372.279,164.638,372.936,164.695z"/>
				<path fill="#FFFFFF" d="M299.648,169.839c0.138,0.026,0.281,0.053,0.423,0.08c0.347-0.113,0.673-0.219,0.966-0.314
					C300.619,169.675,300.145,169.755,299.648,169.839z"/>
				<path fill="#FFFFFF" d="M298.657,171.086l-1.9-0.161C297.184,170.983,297.795,171.037,298.657,171.086z"/>
				<path fill="#FFFFFF" d="M194.868,171.779l-1.152,0.21C195.519,171.937,194.726,171.87,194.868,171.779z"/>
				<path fill="#FFFFFF" d="M435.302,160.891c-1.252-0.095-2.242-0.104-3.11-0.07C433.703,160.984,434.934,161.293,435.302,160.891z
					"/>
				<path fill="#FFFFFF" d="M236.727,169.684c-0.604,0.032-0.862,0.062-0.845,0.092
					C236.504,169.746,236.855,169.716,236.727,169.684z"/>
				<path fill="#FFFFFF" d="M428.615,161.06c0.222,0.031,0.438,0.04,0.662,0.064c0.9-0.137,1.807-0.26,2.915-0.303
					C431.076,160.698,429.805,160.661,428.615,161.06z"/>
				<path fill="#FFFFFF" d="M53.265,173.183c-0.104-0.013-0.226-0.027-0.321-0.039C52.914,173.184,53.056,173.188,53.265,173.183z"
					/>
				<path fill="#FFFFFF" d="M11.99,171.219c0.407-0.015,1.069-0.039,1.693-0.062C13.379,171.157,12.869,171.175,11.99,171.219z"/>
				<path fill="#FFFFFF" d="M462.394,158.878C463.318,158.803,462.538,158.825,462.394,158.878L462.394,158.878z"/>
				<path fill="#FFFFFF" d="M467.003,160.246c-0.194,0.057-0.34,0.124-0.356,0.219C466.716,160.362,466.841,160.292,467.003,160.246
					z"/>
				<path fill="#FFFFFF" d="M419.61,164.537c-0.027,0.001-0.049,0.002-0.08,0.004C419.811,164.614,419.762,164.6,419.61,164.537z"/>
				<path fill="#FFFFFF" d="M463.8,158.993c-0.352-0.032-0.755-0.053-1.193-0.06C462.801,158.955,463.164,158.976,463.8,158.993z"/>
				<path fill="#FFFFFF" d="M463.599,158.808c0.321,0,0.573-0.001,0.813-0.002C464.524,158.732,464.418,158.694,463.599,158.808z"/>
				<path fill="#FFFFFF" d="M461.105,158.968c0.529-0.034,1.024-0.041,1.502-0.035c-0.184-0.019-0.262-0.038-0.213-0.054
					C462.123,158.897,461.74,158.924,461.105,158.968z"/>
				<path fill="#FFFFFF" d="M129.135,172.202c-0.061-0.01-0.131-0.022-0.198-0.034C128.002,172.336,128.413,172.307,129.135,172.202
					z"/>
				<path fill="#FFFFFF" d="M349.054,170.248c0.043-0.01,0.066-0.016,0.105-0.024c-0.044-0.002-0.099-0.006-0.138-0.008
					L349.054,170.248z"/>
				<path fill="#FFFFFF" d="M345.738,170.648c1.399-0.522,2.207-0.489,3.284-0.433l-1.146-1.118c0,0-0.534,0.391-1.068,0.782
					C346.273,170.264,345.738,170.648,345.738,170.648z"/>
				<path fill="#FFFFFF" d="M216.795,171.277l2.336,0.095c-2.82,0.222-4.86,0.192-2.667,0.328c0.33-0.431,9.081-0.138,9.405-0.541
					l1.541,0.078c-0.441,0.01-0.512,0.011-0.948,0.021c2.996,0.18,2.225-0.309,6.084-0.267c1.345,0.022,2.284,0.079,1.367,0.132
					l2.997-0.118c0.872,0.004,0.659,0.078-0.209,0.074l4.572-0.052l-0.034,0.013c0.652-0.07,2.13-0.181,2.851-0.23
					c1.162,0.059-0.583,0.049-0.285,0.104l2.531-0.117c1.032,0.116-1.066,0.233-2.814,0.22c2.366,0.445,2.1-0.122,7.204,0.151
					l-2.39,0.055c1.542,0.27,3.408,0.178,6.112,0.377c-0.642-0.108-5.414-0.461-2.667-0.574c0.775,0.036,1.795,0.06,3.277-0.04
					c0.015,0.178,1.462,0.14,3.273,0.137l-0.122,0.247c1.958-0.058,1.802-0.186,2.953-0.297c2.183,0.034,2.637,0.246,3.153,0.427
					c3.496,0.078-2.417-0.355,1.72-0.375c2.908,0.125,4.948,0.038,8.424-0.133c2.036,0.121-0.354,0.191,0.377,0.286l1.8-0.241
					c0.442,0.009,0.3,0.088,0.229,0.128c1.518-0.09,0.121-0.324,2.509-0.408c0.639-0.39,4.913,0.587,7.864,0.155
					c0.73,0.112-0.349,0.229-0.123,0.376c4.053-0.281,3.475-0.194,6.798-0.634l2.843,0.27c-2.09-0.29,0.566-0.693,2.892-1.086
					c-0.741-0.14-1.376-0.257-1.801-0.309l3.716-0.357c0.45,0.059,0.079,0.227-0.526,0.431c0.252-0.047,0.491-0.092,0.679-0.128
					c1.334,0.126,0.65,0.412-0.298,0.684c-0.454-0.081-0.906-0.162-1.347-0.241c-0.914,0.292-1.769,0.6-1.572,0.85
					c0.241-0.054,0.706-0.105,1.218-0.139c-0.238,0.077-0.391,0.144-0.278,0.186c0.127,0.044,0.514-0.059,1.12-0.183l0.856,0.483
					l0.201-0.201l4.879,0.252c3.476-0.569,6.486-1.456,12.008-1.852c-1.36,0.46-0.276,0.699-0.337,1.205
					c-1.523-0.497-4.279,0.306-7.149,0.242c1.497,0.028,1.174,0.263,0.796,0.348l5.103-0.554c-0.105,0.409,1.094,0.287,2.435,0.437
					c-1.032-0.799,3.797-0.619,5.87-0.924c0.137,0.282-0.353,0.583-2.894,0.563c2.819,0.587,3.589-1.067,6.354-0.586
					c-0.62,0.021-0.955-0.016-1.195,0.136c1.439-0.289,4.985-0.166,4.16,0.111l-0.618,0.019c4.119,0.018,12.528-0.267,13.113-1.067
					c0.045,0.1-0.505,0.954-0.748,1.116c0,0,1.811-0.703,3.622-1.406c1.807-0.752,3.613-1.504,3.613-1.504
					c-0.619,0.712,1.928,2.242-1.468,2.772c0.983,0.056,2.199,0.122,4.255-0.208c-0.673-0.072-1.706-0.926-0.796-1.03
					c2.537,0.66,1.756,0.333,4.873,0.865c-1.008-0.108,0.058-1.253,1.64-1.293c-0.239,0.177,0.18,1.086-0.394,1.226l3.89-1.263
					c-0.974,0.242-0.132,0.937,0.765,1.212c-0.419-0.199,3.406-0.121,4.451-0.274l-1.682-0.188c4.456-0.016,4.316-1.768,8.727-1.921
					c-0.521,0.263-1.245,1.507,1.006,1.555c1-0.624,4.404-3.038,8.273-3.707l0.766,0.305l2.968-0.545
					c-1.808,1.011-6.933,3.154-9.755,3.994c1.679,0.196,0.484,0.378,2.977,0.244c0.897,0.282-1.333,0.538-2.066,0.586l5.818-0.031
					c-0.297-0.688,4.4-0.89,4.145-1.47l-6.264,1c-0.292-0.688,3.536-2.127,7.649-2.23c1.061,0.217-0.708,1.309-0.609,1.539
					c0.52-0.276,3.871-0.706,4.259-0.555l-1.72,0.487c2.303,0.131,3.675-1.175,6.463-0.665c0.951-0.014,2.89,0.749,3.027,0.313
					c-1.599-0.724-2.056-3.236-1.063-3.921c0.335,0.033,5.021,0.458,6.13,0.795c1.602,0.545-2.245,1.689-0.881,2.157
					c0.044-0.201,0.892-0.499,1.246-0.6c1.006,0.104-0.373,0.637,1.784,0.408c0.313-0.755,4.404-0.223,0.982-0.684
					c2.103-0.347,2.259,0.005,4.741-0.189c-0.821-0.421,2.123-1.754,4.228-2.098c-0.112,0.194,0.38,0.405,0.618,0.5
					c4.341-0.209,6.691-0.038,10.731-0.332c0.385,0.147,2.35,0.214,1.54,0.583c0.572-0.17,1.089-0.452,2.335-0.56
					c2.455,0.438-2.772,0.301-0.882,0.907c0.128-0.427,3.183-0.813,4.939-1.2c-0.591-0.594-4.109,0.176-5.869,0.568
					c-0.07-0.887,2.959-2.037,7.155-2.725c3.343-0.445,1.495,0.46,2.069,0.297c6.316-0.291,5.269-1.857,10.549-1.589
					c2.116,0.395,0.168,1.053,0.656,1.407c-2.721,0.397-4.222-0.044-6.074,0.106l2.3,0.096c-0.857,0.24-2.673,0.509-3.679,0.421
					c1.775,0.375,10.657-0.692,15.555-0.559c0.853-0.229,2.333-0.501,1.613-0.662l-1.536,0.168c-1.444-0.33,2.861-0.75,0.897-0.825
					c2.048-0.417,4.337-0.993,7.263-0.929l0.584,0.533c-0.073-0.16-1.925-0.226-2.731-0.004c1.197-0.317,4.511,0.495,5.794-0.314
					l-2.065-0.269c2.059-0.401,4.591-1.118,7.183-1.077c-1.207-0.474-0.591,0.093-2.464-0.443c1.639,0.705-6.608,0.299-4.001,1.009
					c-1.93-0.653-3.277-0.144-5.782-0.673c0.089,0.186,0.896,0.318-1.278,0.335c-0.094,0.061-0.32,0.144-0.464,0.193
					c-0.067-0.003-0.09-0.004-0.147-0.006c0.044,0.006,0.077,0.01,0.121,0.016c-0.092,0.033-0.1,0.04,0.045,0.005
					c0.521,0.057,0.947,0.135,1.124,0.232c-1.047,0.493-4.493,0.675-5.642,0.973c-1.292-0.02,0.521-0.254-0.194-0.423l-1.716,0.445
					c-0.203-0.426-3.463-0.512-0.456-0.958l-2.724,0.149c-1.621-0.148-3.833-0.118-5.18,0.157c-1.291-0.019-3.208,0.706-2.114,0.28
					l-4.25,0.554l-0.047-0.113c-4.217,0.21-8.616,1.342-13.491,0.814c-1.409,0.211-2.864,0.468-5.245,0.481l-0.491-0.385
					c-1.81,0.256-5.491-0.079-6.243,0.404c-2.038-1-8.842,0.318-12.053,0.335l-0.087,0.552c-2.203,0.116-4.305,0.41-7.024,0.814
					l0.197,0.467c-2.333,0.542-6.078,0.084-9.803,0.366c0.243-0.19,1.191-0.198,1.867-0.14c-4.514-0.788-9.358,1.273-13.44,0.734
					c-0.999,0.221-1.73,0.203-2.442,0.127c0.094-0.006,0.177-0.019,0.248-0.037c-0.104,0.004-0.257,0.011-0.414,0.017
					c-0.448-0.054-0.91-0.119-1.41-0.165c0.427,0.087,0.835,0.155,1.188,0.178c-0.776,0.052-1.951,0.173-3.1,0.349l-0.516-0.457
					c-0.094,0.01-0.169,0.019-0.267,0.029c-1.141-0.114-0.899,0.278-0.277,0.608c-0.577,0.11-1.105,0.234-1.514,0.372
					c-0.957-0.722-3.018,0.42-4.312-0.329c-0.76,0.44-5.791,0.617-6.372,1.465c-0.044-0.104-0.386-0.138,0.237-0.177
					c-1.292-0.027-2.582-0.05-3.729,0.238l-0.57-0.553l-2.78,0.925c-1.723-0.263-2.438-0.424-0.76-0.958
					c-4.068,0.905-3.313,0.415-6.774,1.199l0.156-0.368c-1.245,0.056-3.22,0.6-3.982,0.327c-2.811-0.583-13.798,0.344-20.969,0.041
					c1.413,0.892-3.336-0.29-3.601,0.446c-0.423-0.203-1.423-0.283-0.269-0.521c-3.646,0.36-5.492-0.092-8,0.586
					c-0.422-0.186,0.774-0.333,0.4-0.438c-0.292,0.058-1.156,0.229-1.538,0.126c-0.374-0.102,0.53-0.193,1.106-0.311
					c-3.728,0.219-4.093,0.835-4.353,1.409c-1.896-0.198-2.838-0.113-4.196,0.288c-0.662-0.154-1.764-0.291,0.554-0.446
					c-1.304,0.06-7.973-0.022-8.1,0.377c-0.41-0.092-1.824,0.007-2.167,0.057c-2.928,0.032-3.187,0.006-6.061,0.095l0.798,0.042
					c-1.129,0.447-2.389,0.133-4.707,0.223l0.066-0.042c-5.319-0.187-2.293,0.164-7.541-0.049l0.288,0.219
					c-0.484,0.479-4.649-0.208-7.691,0.024l1.1,0.099c-1.661,0.161-4.651-0.504-6.32-0.508c-0.364-0.027,0.574-0.067,1.082-0.105
					c-4.372-0.137-0.564,0.258-3.821,0.374c-0.601-0.114,0.772-0.338-1.42-0.314c-1.092-0.064-6.355,0.508-9.347,0.33
					c0.659,0.076,1.314,0.154-0.199,0.24c-2.319,0.057-6.269-0.229-8.363,0.052c-0.295-0.019-0.406-0.039-0.418-0.058
					c-1.772,0.09-5.761,0.165-6.829,0.305c-1.638-0.484-11.021,0.309-10.982-0.16l-5.453,0.037l0.143-0.049
					c-3.486-0.032-4.718,0.083-5.943,0.209c-0.806-0.035-0.217-0.083-0.151-0.11c-5.093-0.109-5.6-0.111-9.869,0.177l-0.445-0.195
					c-1.157,0.127-7.364-0.375-12.359-0.169c0.049-0.027,0.152-0.072,0.549-0.102c-2.81,0.114-6.174-0.09-9.093-0.243
					c-2.919-0.149-5.393-0.229-6.421,0.319l-3.708,0.257c4.799,0.104-0.713,0.502,1.261,0.697c-1.887,0.085-4.879-0.344-2.561-0.408
					l0.363,0.06c0.85-0.618-5.963-0.238-5.835-0.688c-9.442-0.025-18.647-0.505-27.492-0.559l1.022,0.641l-3.085-0.032
					c-0.811-0.148-1.089-0.507,1.112-0.479c-1.159-0.369-3.69,0.311-3.752,0.455c-4.311-0.256,1.68-0.764,0.358-0.776l-1.794,0.05
					l0.405,0.076c-1.454,0.27-1.582,0.554-4.227,0.533c-1.674-0.124-0.86-0.402-1.52-0.425c0.004-0.046-0.219-0.068-1.011-0.014
					l-3.887-0.032l1.557,0.51c-1.721,0.267-3.654-0.002-1.858,0.575c-2.637-0.893-14.5-0.212-16.118-0.472
					c-2.41,0.394-4.792,0.404-7.743,0.391c0.734,0.096,1.176,0.651-1.369,0.603c0.923-1.152-4.663-0.455-6.725-1.23
					c1.841,0.506-7.233,0.228-4.344,0.931c-2.124-0.064-0.132-0.407-1.745-0.641c-5.051,0.479-11.139-0.098-17.384,0.162
					c-0.097,0.126,0.951,0.304-0.387,0.512l-3.303-0.56c-1.233,0.087-1.13,0.715-3.387,0.343c0.318,0.093,0.795,0.236-0.032,0.287
					c-6.121-0.184-12.371,0.073-18.645,0.24c-6.274,0.188-12.573,0.254-18.787,0.212c1.684,0.05,0.562,0.102-0.723,0.143
					c0.836,0-0.018,0.133,0.147,0.2c0,0-1.301-0.016-2.602-0.031c-1.301-0.002-2.602-0.004-2.602-0.004
					c-0.947,0.172-5.577,0.195-6.119,0.311l1.647-0.062c-2.189,0.15,3.069,0.24,2.75,0.477c1.226-0.077,2.844-0.005,4.659,0.096
					c1.814,0.091,3.826,0.217,5.837,0.029c0.889,0.079-0.757,0.099-0.281,0.18c1.02-0.125,2.251-0.152,4.536-0.055l-0.258,0.038
					c6.416,0.03,9.168,0.234,16.377,0.486l-0.536-0.27c1.549,0.049,1.876,0.137,2.602,0.213c1.773-0.397-4.351-0.066-2.735-0.493
					c2.059,0.567,10.921,0.059,12.315,0.771c2.383,0.026-0.701-0.364,1.681-0.343l0.633,0.202l0.6-0.252
					c1.563,0.051,2.353,0.312,2.413,0.486c-0.379-0.024-1.077,0.038-1.483,0.047c2.028,0.264,5.711-0.024,6.407,0.06l-2.29-0.151
					c6.5-0.153,14.442,0.194,20.72-0.279l-0.478-0.182c4.794-0.339,3.843,0.203,9.109,0.045l-0.191,0.045
					c1.053-0.189,2.46-0.289,3.901-0.27c-1.329,0.225,2.505,0.435,0.762,0.685c5.199-0.387,2.571-0.301,6.002-1.036L98,172.422
					c1.169-0.297,1.266-0.454,3.896-0.551c-2.155,0.29,1.682,0.494-0.732,0.874c5.523,0.709,8.191-0.761,10.729,0.292
					c2.53-0.934-4.779-0.492-3.36-0.695c-1.19-0.294,2.088-0.697,3.821-0.614c1.763,0.009,3.004,1.169,7.439,1.12
					c-0.441,0-0.471,0.069-0.911,0.068c1.661,0.224,3.25-0.342,5.288,0.02c1.139-0.564,2.644,0.004,2.969-0.703l-4.068,0.2
					c2.306-0.208,4.465-1.046,8.266-0.681c-0.296,0.143-1.425,0.338-2.202,0.45c1.112,0.194,2.139-0.158,3.292,0.041
					c-0.326,0.698-4.944,0.206-7.412,0.767c1.194,0.284,4.671-0.561,3.434,0.214c1.78-0.984,4.37,0.06,7.37-0.707l-0.197,0.411
					c0.476-0.071,1.459-0.279,2.334-0.282l-1.582,0.553c2.43-0.487,4.689,0.299,7.02,0.005c-4.883,0.116-1.098-0.451-3.164-0.702
					c6.021-0.62,3.468,0.968,10.209,0.604c-0.913,0.08-3.428-0.138-2.001-0.345c1.284,0.05,2.979,0.148,3.768,0.315
					c4.467-0.197-0.688-0.35,1.213-0.62c1.523,0.395,2.193-0.228,4.151-0.397l0.015,0.346c5.092,0.09,1.348-0.733,5.932-0.566
					l-1.936,0.494l2.389-0.175l-0.492,0.378c2.599-0.344,3.409-0.287,5.956-0.265c-0.593-0.193,0.331-0.546,2.586-0.597
					c1.539,0.135-0.86,0.29,2.336,0.175c-0.721,0.186-1.511,0.434-2.902,0.208c-0.143,0.097-0.711,0.2-0.858,0.297
					c1.656,0.146,4.162-0.085,5.319-0.119c-0.446,0.003-0.978,0.005-1.251-0.026l4.633-0.483c0.729,0.078,0.151,0.166-0.422,0.257
					c0.938-0.053,1.587-0.185,2.967-0.238c-0.356,0.206-0.271,0.405-2.224,0.564l4.414-0.352c0.295,0.075,2.266,0.156,1.693,0.241
					c2.448,0.017,6.003-0.514,9.249-0.457c0.168-0.035,0.507-0.071,1.197-0.108c3.05-0.028,5.751,0.08,9.366-0.173l2.051,0.202
					c2.831-0.101-2.777-0.253,1.937-0.413c3.337-0.115,1.246,0.178,2.417,0.224c1.66-0.141,4.545-0.395,7.611-0.246
					C218.54,171.276,217.743,171.25,216.795,171.277z M251.715,171.025c-0.676,0.037-2.025,0.143-2.521,0.043
					C249.964,170.878,250.562,170.967,251.715,171.025z M304.801,170.372c-0.5,0.126-1.28,0.083-2.16-0.028
					C303.278,170.302,304,170.298,304.801,170.372z M452.276,159.842c-0.027,0.009-0.048,0.016-0.069,0.028
					C450.687,159.778,451.226,159.818,452.276,159.842z M455.418,159.851c0.311-0.086,0.284-0.15,0.146-0.208
					c-0.21,0.133-0.912,0.187-1.714,0.203C454.082,159.957,454.492,160.017,455.418,159.851z M119.227,169.358l0.611,0.111
					C118.461,169.601,118.846,169.486,119.227,169.358z"/>
				<path fill="#FFFFFF" d="M298.792,170.942c-0.192-0.052-0.247-0.113-0.293-0.173
					C298.234,170.829,298.229,170.892,298.792,170.942z"/>
				<path fill="#FFFFFF" d="M195.081,171.741h-0.106c-0.058,0.013-0.089,0.026-0.107,0.038L195.081,171.741z"/>
				<path fill="#FFFFFF" d="M407.27,167.389c-0.649-0.034-1.015-0.106-1.26-0.188C405.983,167.329,406.283,167.417,407.27,167.389z"
					/>
				<path fill="#FFFFFF" d="M471.97,158.194l-2.001,0.213c0.97-0.07,1.322,0.009,1.817,0.054
					C471.735,158.361,471.342,158.231,471.97,158.194z"/>
				<path fill="#FFFFFF" d="M489.529,159.801c0.291-0.061,0.622-0.031,0.908-0.092l-0.09-0.177
					C489.098,159.586,488.236,159.802,489.529,159.801z"/>
				<path fill="#FFFFFF" d="M473.918,159.543c0.181,0.356,1.431,0.158,2.831,0.011l-0.248,0.014
					C476.885,159.043,475.398,159.291,473.918,159.543z"/>
				<path fill="#FFFFFF" d="M477.075,159.523c0.432-0.042,0.874-0.076,1.298-0.083C478.525,159.232,477.844,159.428,477.075,159.523
					z"/>
				<path fill="#FFFFFF" d="M459.372,159.357c0.674,0.065,0.384-0.521,0.772-0.382C460.854,158.437,455.74,159.813,459.372,159.357z
					"/>
				<polygon fill="#FFFFFF" points="475.128,160.672 474.598,160.256 473.833,160.667 				"/>
				<path fill="#FFFFFF" d="M464.025,161.027l2.251-0.008c-0.039-0.077,0.243-0.141,0.591-0.197
					C465.484,160.891,463.962,160.89,464.025,161.027z"/>
				<path fill="#FFFFFF" d="M466.867,160.821c0.721-0.035,1.404-0.087,1.8-0.188C468.278,160.663,467.441,160.729,466.867,160.821z"
					/>
				<polygon fill="#FFFFFF" points="472.072,161.003 471.403,160.95 469.817,161.017 				"/>
				<path fill="#FFFFFF" d="M439.918,162.567l-2.436,0.321c-0.237,0.196,0.438,0.257,1.343,0.121
					C439.403,162.844,440.305,162.712,439.918,162.567z"/>
				<path fill="#FFFFFF" d="M447.414,163.432c-0.669-0.056-0.722-0.165-1.105-0.304l-0.03,0.634L447.414,163.432z"/>
				<path fill="#FFFFFF" d="M440.292,164.112c-0.231,0.195-3.514,0.778-0.417,0.503C440.111,164.42,442.55,164.09,440.292,164.112z"
					/>
				<polygon fill="#FFFFFF" points="403.369,165.806 403.991,165.757 403.833,164.672 				"/>
				<path fill="#FFFFFF" d="M370.967,170.026c2.92,0.129,0.659-0.661,3.301-0.46c0.67-0.273-2.159-0.163-1.47-0.402
					C371.057,169.495,370.128,169.387,370.967,170.026z"/>
				<path fill="#FFFFFF" d="M372.798,169.165c0.279-0.052,0.574-0.114,0.888-0.194C373.181,169.056,372.944,169.116,372.798,169.165
					z"/>
				<polygon fill="#FFFFFF" points="5.146,171.344 3.276,171.393 4.483,171.395 				"/>
				<path fill="#FFFFFF" d="M1.56,171.6l-0.441-0.062l-1.121,0.111C0.42,171.63,1.239,171.593,1.56,171.6z"/>
				<path fill="#FFFFFF" d="M256.911,171.531l0.142-0.058c-0.29-0.066-0.728-0.076-1.604-0.091L256.911,171.531z"/>
				<polygon fill="#FFFFFF" points="231.56,171.329 231.996,171.332 231.181,171.157 				"/>
				<path fill="#FFFFFF" d="M210.292,171.769c0.868-0.023,1.888-0.051,2.76-0.075C211.16,171.762,210.056,171.534,210.292,171.769z"
					/>
			</g>
		</g>
	</g>
</g>
</svg>
