<?xml version="1.0" encoding="utf-8"?>
<!-- Generator: Adobe Illustrator 16.0.0, SVG Export Plug-In . SVG Version: 6.00 Build 0)  -->
<!DOCTYPE svg PUBLIC "-//W3C//DTD SVG 1.1//EN" "http://www.w3.org/Graphics/SVG/1.1/DTD/svg11.dtd">
<svg version="1.1" id="Calque_1" xmlns="http://www.w3.org/2000/svg" xmlns:xlink="http://www.w3.org/1999/xlink" x="0px" y="0px"
	 width="1024px" height="380px" viewBox="0 0 1024 380" enable-background="new 0 0 1024 380" xml:space="preserve">
<g>
	<rect x="0.105" fill="#82929A" width="1023.846" height="380"/>
</g>
<path fill="none" stroke="#FFFFFF" stroke-width="0.25" stroke-miterlimit="10" d="M0.314,362.799c0,0,240.321,0,392.261,0
	c209.611,0,344.273-45.675,631.585-45.675"/>
<g>
	<g>
		<g>
			<g>
				<path fill="#FFFFFF" d="M1022.756,342.768c1.514,0.05,0.973-0.058,1.193-0.063
					C1021.422,342.633,1022.82,342.801,1022.756,342.768z"/>
				<polygon fill="#FFFFFF" points="997.783,342.809 998.226,342.703 994.543,342.962 				"/>
				<path fill="#FFFFFF" d="M974.424,342.729c2.22,0.647,8.464-0.104,12.628,0.137l0.686,0.128l1.873-0.42
					C984.553,342.582,977.988,342.914,974.424,342.729z"/>
				<path fill="#FFFFFF" d="M961.934,341.06c0.775,0.309-2.692,0.206,2.907,0.143c-0.277-0.044-0.363-0.059-0.526-0.084
					C963.807,341.105,963.113,341.085,961.934,341.06z"/>
				<path fill="#FFFFFF" d="M964.313,341.117C966.776,341.144,962.699,340.844,964.313,341.117L964.313,341.117z"/>
				<path fill="#FFFFFF" d="M952.944,341.105l3.237-0.232c-0.688-0.201-3.574-0.3-2.502-0.415
					C950.355,340.55,951.045,340.768,952.944,341.105z"/>
				<path fill="#FFFFFF" d="M949.882,341.742l1.681-0.162C951.265,341.508,950.82,341.482,949.882,341.742z"/>
				<path fill="#FFFFFF" d="M955.119,341.36l-3.557,0.222c0.471,0.137,0.528,0.41,1.632-0.078
					C952.908,341.746,953.607,341.511,955.119,341.36z"/>
				<path fill="#FFFFFF" d="M957.139,341.509c1.822,0.197,4.175,0.321,0.929,0.567C964.265,342.012,963.343,341.487,957.139,341.509
					z"/>
				<path fill="#FFFFFF" d="M973.243,343.417l2.438,0.172l2.098-0.228C976.727,343.475,973.09,343.213,973.243,343.417z"/>
				<path fill="#FFFFFF" d="M932.727,340.962c-0.195,0.214,1.104,0.531,1.354,0.791l2.392-0.289
					C935.237,341.347,932.898,341.266,932.727,340.962z"/>
				<path fill="#FFFFFF" d="M934.084,341.753l-3.569,0.447C933.713,342.155,934.291,341.97,934.084,341.753z"/>
				<path fill="#FFFFFF" d="M949.327,342.718c0,0,1.472-0.237,2.938-0.399c1.469-0.148,2.936-0.307,2.936-0.307
					s-1.753,0.157-3.504,0.31c-1.751,0.223-3.501,0.441-3.501,0.441L949.327,342.718z"/>
				<polygon fill="#FFFFFF" points="919.029,341.201 921.047,340.64 917.451,341.504 				"/>
				<path fill="#FFFFFF" d="M909.951,341.487c1.486-0.489-2.095-0.732-0.513-1.046c-2.467,0.123-4.563,0.563-6.443,0.975
					C905.002,341.164,907.153,341.176,909.951,341.487z"/>
				<path fill="#FFFFFF" d="M899.83,342.027c1.006-0.143,2.037-0.372,3.164-0.615C901.928,341.549,900.877,341.73,899.83,342.027z"
					/>
				<path fill="#FFFFFF" d="M924.406,342.253c-0.283-0.124-0.827-0.455-2.844-0.56l1.43,0.59
					C923.424,342.275,923.908,342.267,924.406,342.253z"/>
				<path fill="#FFFFFF" d="M923.045,342.304l-0.058-0.025c-1.523,0.027-2.591,0.043-3.045,0.049
					C920.336,342.328,921.27,342.317,923.045,342.304z"/>
				<path fill="#FFFFFF" d="M924.761,342.248c-0.131,0.001-0.229,0.005-0.354,0.005
					C924.543,342.313,924.627,342.331,924.761,342.248z"/>
				<path fill="#FFFFFF" d="M939.931,342.521c-2.103,0.366-6.47,0.876-2.212,1.209C939.215,343.288,936.775,343.093,939.931,342.521
					z"/>
				<path fill="#FFFFFF" d="M926.534,342.965l3.813,0.021c-0.078-0.152-0.774-0.363,0.265-0.562L926.534,342.965z"/>
				<polygon fill="#FFFFFF" points="924.682,343.219 926.534,342.965 925.122,342.959 				"/>
				<path fill="#FFFFFF" d="M906.382,342.502c-1.638,0.342-3.436,0.426-5.461,0.534c2.184,0.074,4.437,0.077,6.572,0.006
					C907.789,342.821,908.714,342.413,906.382,342.502z"/>
				<path fill="#FFFFFF" d="M914.481,342.466c-0.114,0.018-0.259,0.031-0.365,0.044
					C914.342,342.563,914.523,342.572,914.481,342.466z"/>
				<path fill="#FFFFFF" d="M880.93,343.871c0.107,0.039,0.211,0.079,0.328,0.121c0.021-0.045,0.039-0.089,0.063-0.137
					L880.93,343.871z"/>
				<path fill="#FFFFFF" d="M907.869,343.161c1.644,0.079,2.612-0.119,3.534-0.348c-1.221,0.104-2.516,0.183-3.905,0.232
					C907.364,343.146,907.343,343.213,907.869,343.161z"/>
				<path fill="#FFFFFF" d="M894.262,342.51c0.856,0.131,1.833,0.228,2.851,0.315C896.27,342.621,894.557,342.313,894.262,342.51z"
					/>
				<path fill="#FFFFFF" d="M913.561,342.344c0.081-0.013,0.155-0.025,0.241-0.034C913.261,342.18,913.33,342.249,913.561,342.344z"
					/>
				<path fill="#FFFFFF" d="M913.561,342.344c-0.84,0.122-1.497,0.303-2.157,0.465c0.993-0.08,1.915-0.181,2.712-0.299
					C913.91,342.471,913.709,342.405,913.561,342.344z"/>
				<path fill="#FFFFFF" d="M875.125,349.234c0.254-0.754,4.517-1.716,8.25-1.234c3.619-0.797,1.134-2.895-2.113-4.012
					c-0.104,0.313-0.087,0.596-3.822,1.249c1.335,0.313,8.37,0.366,5.235,1.21c-4.95,0.712-4.081,0.03-6.521-0.188
					c2.096,0.756-6.256,1.748-5.105,3.027l4.328-0.797C875.472,348.69,873.908,349.141,875.125,349.234z"/>
				<path fill="#FFFFFF" d="M888.418,343.646l1.546-0.15c-1.771-0.064-3.046-0.236-5.396-0.659
					c-2.556,0.483-3.076,0.772-3.243,1.024l7.613-0.348L888.418,343.646z"/>
				<path fill="#FFFFFF" d="M896.909,343.267c-1.177,0.759-4.881,1.211-2.563,1.915c4.535-0.233,3.147-0.729,5.854-1.134
					c-7.321,0.431,2.086-0.466-3.225-0.699c1.436-0.169,2.729-0.24,3.951-0.31c-1.325-0.048-2.604-0.119-3.813-0.221
					c0.067,0.02,0.115,0.024,0.172,0.042l0.035-0.007l-0.007,0.016c0.32,0.078,0.426,0.129,0.068,0.088
					c-0.024,0.013-0.117,0.013-0.153,0.019c-0.044,0.104-0.179,0.195-0.319,0.286c-2.129-0.08-0.343-0.181,0.319-0.286
					c0.021-0.031,0.079-0.066,0.085-0.108l-0.028-0.008l-7.325,0.627C891.519,343.547,893.462,343.46,896.909,343.267z"/>
				<path fill="#FFFFFF" d="M933.844,345.143c-0.229-0.039-0.225-0.084-0.239-0.128
					C933.133,345.109,932.955,345.166,933.844,345.143z"/>
				<path fill="#FFFFFF" d="M930.819,344.921c0.53-0.109,0.965-0.366,2.698-0.377c1.509,0.108,0.001,0.277,0.087,0.47
					c1.038-0.21,3.644-0.574,0.354-0.726l-0.514,0.104c-2.959-0.071-6.771-0.688-6.264-0.796
					C928.063,344.117,928.834,344.478,930.819,344.921z"/>
				<path fill="#FFFFFF" d="M913.672,344.4l-6.099,0.567l3.132,0.456l-0.171-0.345C914.02,345.073,913.252,344.678,913.672,344.4z"
					/>
				<polygon fill="#FFFFFF" points="880.212,343.526 880.98,342.668 877.512,344.019 				"/>
				<polygon fill="#FFFFFF" points="872.28,344.08 872.54,343.334 870.464,343.894 				"/>
				<path fill="#FFFFFF" d="M425.156,371.676l-1.795,0.08C424.206,371.717,424.752,371.692,425.156,371.676z"/>
				<path fill="#FFFFFF" d="M438.148,371.634l0.317-0.138C437.864,371.575,437.617,371.631,438.148,371.634z"/>
				<path fill="#FFFFFF" d="M677.773,357.986c-2.643-0.629-5.604-1.647-5.251-0.72l0.84,0.869
					C675.178,357.853,676.58,357.866,677.773,357.986z"/>
				<path fill="#FFFFFF" d="M544.603,368.936c0.25,0.057,0.51,0.116,0.768,0.175c0.636-0.239,1.229-0.467,1.76-0.667
					C546.366,368.588,545.502,368.755,544.603,368.936z"/>
				<path fill="#FFFFFF" d="M542.801,371.592l-3.453-0.344C540.123,371.371,541.234,371.488,542.801,371.592z"/>
				<path fill="#FFFFFF" d="M354.204,373.066l-2.094,0.444C355.387,373.405,353.945,373.261,354.204,373.066z"/>
				<path fill="#FFFFFF" d="M791.098,349.888c-2.273-0.2-4.072-0.22-5.648-0.15C788.194,350.087,790.432,350.744,791.098,349.888z"
					/>
				<path fill="#FFFFFF" d="M430.268,368.604c-1.102,0.07-1.567,0.133-1.537,0.195C429.861,368.739,430.498,368.674,430.268,368.604
					z"/>
				<path fill="#FFFFFF" d="M778.949,350.249c0.403,0.063,0.795,0.079,1.202,0.132c1.636-0.291,3.283-0.555,5.298-0.646
					C783.421,349.477,781.111,349.397,778.949,350.249z"/>
				<path fill="#FFFFFF" d="M96.895,376.058c-0.189-0.026-0.411-0.059-0.583-0.082C96.256,376.058,96.516,376.065,96.895,376.058z"
					/>
				<path fill="#FFFFFF" d="M21.894,371.875c0.739-0.032,1.942-0.084,3.077-0.13C24.417,371.745,23.49,371.781,21.894,371.875z"/>
				<path fill="#FFFFFF" d="M840.329,345.603C842.009,345.441,840.59,345.49,840.329,345.603L840.329,345.603z"/>
				<path fill="#FFFFFF" d="M848.705,348.515c-0.354,0.12-0.615,0.266-0.646,0.466C848.182,348.759,848.41,348.61,848.705,348.515z"
					/>
				<path fill="#FFFFFF" d="M762.584,357.65c-0.048,0.002-0.089,0.004-0.146,0.01C762.95,357.813,762.861,357.784,762.584,357.65z"
					/>
				<path fill="#FFFFFF" d="M842.884,345.85c-0.645-0.071-1.372-0.114-2.167-0.128C841.068,345.766,841.729,345.813,842.884,345.85z
					"/>
				<path fill="#FFFFFF" d="M842.518,345.456c0.585,0,1.043-0.008,1.479-0.008C844.201,345.291,844.009,345.208,842.518,345.456z"/>
				<path fill="#FFFFFF" d="M837.987,345.792c0.96-0.071,1.86-0.087,2.729-0.071c-0.336-0.042-0.479-0.082-0.393-0.119
					C839.837,345.642,839.142,345.701,837.987,345.792z"/>
				<path fill="#FFFFFF" d="M234.759,373.968c-0.111-0.023-0.238-0.047-0.36-0.074C232.701,374.253,233.446,374.19,234.759,373.968z
					"/>
				<path fill="#FFFFFF" d="M634.379,369.81c0.075-0.021,0.114-0.035,0.188-0.05c-0.08-0.008-0.18-0.016-0.251-0.021L634.379,369.81
					z"/>
				<path fill="#FFFFFF" d="M628.352,370.661c2.543-1.113,4.014-1.042,5.966-0.925l-2.079-2.375c0,0-0.973,0.828-1.938,1.661
					C629.325,369.839,628.352,370.661,628.352,370.661z"/>
				<path fill="#FFFFFF" d="M394.047,372.002l4.245,0.199c-5.125,0.471-8.832,0.408-4.846,0.701
					c0.599-0.917,16.5-0.293,17.089-1.152l2.801,0.162c-0.804,0.027-0.93,0.027-1.723,0.048c5.444,0.38,4.043-0.659,11.055-0.568
					c2.444,0.05,4.151,0.171,2.484,0.279l5.446-0.249c1.585,0.012,1.198,0.167-0.379,0.159l8.308-0.111l-0.062,0.025
					c1.185-0.147,3.872-0.387,5.181-0.487c2.111,0.125-1.059,0.102-0.517,0.218l4.598-0.249c1.875,0.249-1.938,0.501-5.113,0.473
					c4.299,0.945,3.815-0.262,13.09,0.319l-4.342,0.121c2.801,0.571,6.192,0.378,11.106,0.803c-1.167-0.23-9.837-0.979-4.851-1.223
					c1.409,0.077,3.266,0.128,5.955-0.082c0.026,0.381,2.657,0.297,5.948,0.29l-0.222,0.528c3.559-0.123,3.271-0.398,5.364-0.633
					c3.969,0.071,4.791,0.521,5.729,0.91c6.354,0.166-4.393-0.763,3.125-0.8c5.283,0.266,8.991,0.079,15.308-0.283
					c3.699,0.257-0.644,0.404,0.687,0.606l3.271-0.512c0.803,0.021,0.544,0.185,0.415,0.271c2.761-0.189,0.222-0.688,4.563-0.868
					c1.162-0.83,8.93,1.249,14.289,0.331c1.327,0.235-0.636,0.485-0.225,0.801c7.362-0.6,6.313-0.413,12.354-1.348l5.166,0.572
					c-3.799-0.616,1.024-1.476,5.255-2.313c-1.346-0.294-2.501-0.546-3.271-0.657l6.748-0.762c0.818,0.125,0.146,0.48-0.953,0.921
					c0.458-0.102,0.895-0.196,1.23-0.275c2.426,0.272,1.184,0.875-0.541,1.456c-0.822-0.173-1.646-0.342-2.445-0.512
					c-1.659,0.619-3.214,1.278-2.854,1.807c0.437-0.116,1.28-0.224,2.213-0.289c-0.437,0.162-0.709,0.302-0.504,0.396
					c0.229,0.093,0.934-0.126,2.03-0.391l1.56,1.026l0.365-0.429l8.862,0.536c6.313-1.207,11.784-3.099,21.818-3.94
					c-2.473,0.976-0.504,1.491-0.61,2.567c-2.771-1.063-7.772,0.649-12.985,0.513c2.717,0.061,2.131,0.554,1.439,0.741l9.271-1.185
					c-0.19,0.87,1.984,0.612,4.428,0.935c-1.88-1.705,6.896-1.321,10.661-1.972c0.25,0.604-0.643,1.237-5.258,1.198
					c5.126,1.249,6.521-2.271,11.548-1.249c-1.128,0.047-1.732-0.031-2.173,0.292c2.613-0.614,9.061-0.353,7.563,0.235l-1.126,0.041
					c7.482,0.034,22.771-0.569,23.83-2.272c0.08,0.214-0.918,2.031-1.354,2.377c0,0,3.286-1.502,6.583-2.995
					c3.279-1.603,6.563-3.197,6.563-3.197c-1.126,1.517,3.505,4.771-2.667,5.904c1.784,0.115,3.994,0.255,7.73-0.445
					c-1.227-0.156-3.104-1.978-1.445-2.193c4.609,1.406,3.188,0.71,8.854,1.842c-1.831-0.229,0.104-2.664,2.979-2.752
					c-0.438,0.376,0.326,2.314-0.715,2.607l7.064-2.688c-1.771,0.516-0.239,1.996,1.39,2.579c-0.76-0.422,6.188-0.26,8.092-0.582
					l-3.06-0.396c8.101-0.034,7.848-3.767,15.856-4.094c-0.944,0.563-2.261,3.211,1.827,3.31c1.814-1.323,8.002-6.461,15.033-7.891
					l1.392,0.655l5.396-1.163c-3.285,2.151-12.603,6.712-17.729,8.502c3.054,0.42,0.881,0.806,5.411,0.517
					c1.63,0.606-2.422,1.146-3.754,1.249l10.569-0.066c-0.538-1.464,7.992-1.894,7.53-3.131l-11.384,2.129
					c-0.53-1.461,6.427-4.524,13.899-4.747c1.929,0.463-1.287,2.785-1.107,3.276c0.943-0.583,7.036-1.503,7.742-1.184l-3.129,1.036
					c4.186,0.281,6.679-2.501,11.745-1.413c1.729-0.028,5.251,1.596,5.501,0.665c-2.906-1.542-3.736-6.886-1.937-8.347
					c0.608,0.073,9.124,0.973,11.143,1.692c2.909,1.159-4.077,3.593-1.604,4.595c0.08-0.429,1.621-1.064,2.268-1.28
					c1.824,0.223-0.684,1.356,3.238,0.872c0.568-1.609,8-0.475,1.784-1.458c3.821-0.736,4.104,0.015,8.616-0.401
					c-1.495-0.895,3.854-3.731,7.684-4.464c-0.206,0.413,0.688,0.866,1.122,1.065c7.892-0.445,12.156-0.08,19.498-0.711
					c0.699,0.313,4.271,0.457,2.798,1.238c1.039-0.358,1.979-0.963,4.243-1.189c4.461,0.931-5.036,0.642-1.603,1.927
					c0.229-0.907,5.78-1.729,8.977-2.551c-1.077-1.265-7.468,0.374-10.666,1.21c-0.127-1.889,5.377-4.338,13-5.799
					c6.077-0.948,2.717,0.974,3.761,0.631c11.479-0.619,9.575-3.957,19.172-3.387c3.846,0.843,0.308,2.24,1.188,2.997
					c-4.94,0.841-7.671-0.096-11.039,0.224l4.186,0.203c-1.561,0.512-4.856,1.082-6.688,0.898
					c3.229,0.801,19.363-1.473,28.266-1.188c1.554-0.491,4.236-1.068,2.935-1.41l-2.791,0.356c-2.624-0.704,5.196-1.599,1.629-1.76
					c3.722-0.887,7.882-2.111,13.197-1.978l1.063,1.135c-0.134-0.343-3.497-0.481-4.963-0.01c2.175-0.674,8.198,1.054,10.528-0.667
					l-3.752-0.57c3.739-0.855,8.341-2.38,13.054-2.292c-2.191-1.012-1.075,0.194-4.479-0.944c2.979,1.502-12.009,0.639-7.271,2.146
					c-3.506-1.392-5.954-0.305-10.505-1.433c0.162,0.395,1.626,0.677-2.323,0.712c-0.17,0.135-0.581,0.31-0.844,0.413
					c-0.121-0.009-0.163-0.012-0.268-0.016c0.079,0.016,0.141,0.021,0.221,0.035c-0.167,0.07-0.184,0.082,0.082,0.012
					c0.945,0.12,1.721,0.289,2.043,0.493c-1.903,1.052-8.166,1.438-10.252,2.074c-2.354-0.042,0.942-0.543-0.354-0.903l-3.119,0.949
					c-0.365-0.908-6.291-1.09-0.825-2.037l-4.947,0.316c-2.945-0.315-6.966-0.253-9.415,0.334c-2.346-0.042-5.829,1.504-3.841,0.599
					l-7.727,1.182l-0.087-0.242c-7.661,0.451-15.651,2.859-24.512,1.734c-2.563,0.447-5.206,0.993-9.532,1.023l-0.894-0.817
					c-3.287,0.549-9.979-0.165-11.348,0.864c-3.698-2.132-16.063,0.674-21.897,0.711l-0.157,1.181
					c-4.004,0.241-7.825,0.868-12.766,1.729l0.355,0.996c-4.239,1.149-11.046,0.177-17.813,0.779
					c0.438-0.404,2.166-0.427,3.395-0.296c-8.203-1.681-17.006,2.71-24.424,1.561c-1.813,0.47-3.142,0.432-4.438,0.268
					c0.171-0.012,0.319-0.038,0.447-0.076c-0.187,0.014-0.467,0.023-0.751,0.036c-0.813-0.115-1.65-0.255-2.563-0.351
					c0.774,0.185,1.52,0.328,2.159,0.378c-1.411,0.112-3.548,0.368-5.639,0.747l-0.937-0.975c-0.172,0.023-0.312,0.039-0.484,0.063
					c-2.073-0.247-1.635,0.591-0.504,1.293c-1.049,0.233-2.008,0.497-2.751,0.79c-1.739-1.54-5.486,0.894-7.835-0.701
					c-1.383,0.938-10.521,1.314-11.581,3.119c-0.077-0.223-0.7-0.295,0.435-0.379c-2.351-0.056-4.69-0.104-6.775,0.508l-1.033-1.179
					l-5.053,1.969c-3.134-0.558-4.435-0.9-1.382-2.038c-7.396,1.925-6.021,0.883-12.312,2.557l0.281-0.785
					c-2.264,0.122-5.852,1.277-7.233,0.698c-5.105-1.239-25.072,0.729-38.102,0.087c2.563,1.898-6.063-0.616-6.546,0.947
					c-0.771-0.431-2.588-0.604-0.488-1.109c-6.623,0.767-9.979-0.193-14.536,1.247c-0.767-0.395,1.408-0.712,0.729-0.929
					c-0.529,0.122-2.104,0.484-2.795,0.269c-0.685-0.215,0.963-0.41,2.01-0.659c-6.772,0.464-7.438,1.773-7.91,2.993
					c-3.443-0.419-5.155-0.241-7.623,0.615c-1.203-0.328-3.205-0.62,1.005-0.953c-2.366,0.132-14.482-0.046-14.718,0.805
					c-0.746-0.194-3.314,0.02-3.938,0.123c-5.32,0.072-5.791,0.015-11.016,0.204l1.449,0.086c-2.052,0.955-4.341,0.284-8.553,0.473
					l0.117-0.086c-9.666-0.396-4.166,0.348-13.701-0.103l0.521,0.464c-0.879,1.021-8.447-0.444-13.976,0.055l2,0.208
					c-3.021,0.344-8.452-1.076-11.485-1.082c-0.661-0.056,1.043-0.142,1.968-0.223c-7.942-0.289-1.023,0.554-6.941,0.798
					c-1.095-0.244,1.401-0.718-2.581-0.666c-1.984-0.139-11.548,1.078-16.985,0.701c1.198,0.163,2.388,0.33-0.359,0.511
					c-4.215,0.123-11.395-0.488-15.196,0.109c-0.536-0.037-0.738-0.079-0.76-0.124c-3.221,0.188-10.469,0.348-12.41,0.649
					c-2.977-1.028-20.028,0.657-19.956-0.344l-9.909,0.078l0.26-0.1c-6.334-0.072-8.573,0.178-10.799,0.446
					c-1.466-0.075-0.394-0.18-0.274-0.235c-9.254-0.235-10.176-0.235-17.934,0.372l-0.808-0.412
					c-2.103,0.271-13.381-0.798-22.458-0.356c0.09-0.062,0.277-0.156,0.998-0.219c-5.105,0.239-11.219-0.191-16.523-0.521
					c-5.305-0.314-9.799-0.482-11.667,0.683l-6.737,0.547c8.72,0.224-1.295,1.071,2.292,1.485c-3.429,0.182-8.867-0.73-4.654-0.869
					l0.659,0.127c1.544-1.313-10.835-0.505-10.604-1.463c-17.157-0.055-33.885-1.074-49.957-1.188l1.857,1.362l-5.606-0.07
					c-1.474-0.313-1.979-1.08,2.021-1.021c-2.107-0.785-6.706,0.661-6.818,0.969c-7.833-0.544,3.053-1.622,0.65-1.655l-3.26,0.108
					l0.735,0.163c-2.642,0.574-2.874,1.183-7.682,1.132c-3.041-0.261-1.562-0.858-2.762-0.904c0.007-0.099-0.397-0.146-1.837-0.028
					l-7.063-0.069l2.83,1.083c-3.127,0.568-6.64-0.002-3.375,1.226c-4.793-1.901-26.349-0.446-29.29-1.004
					c-4.38,0.839-8.708,0.858-14.071,0.833c1.334,0.201,2.138,1.384-2.486,1.282c1.677-2.449-8.474-0.965-12.221-2.614
					c3.346,1.077-13.143,0.482-7.893,1.979c-3.86-0.134-0.239-0.868-3.171-1.365c-9.178,1.021-20.24-0.207-31.588,0.345
					c-0.176,0.271,1.728,0.646-0.703,1.087l-6.001-1.186c-2.241,0.18-2.054,1.518-6.156,0.725c0.579,0.197,1.446,0.498-0.058,0.607
					c-11.122-0.393-22.479,0.159-33.88,0.514c-11.4,0.4-22.847,0.54-34.138,0.45c3.06,0.105,1.021,0.218-1.314,0.303
					c1.521,0-0.032,0.286,0.268,0.426c0,0-2.364-0.031-4.729-0.067c-2.364-0.003-4.728-0.008-4.728-0.008
					c-1.722,0.362-10.134,0.413-11.12,0.661l2.993-0.131c-3.978,0.318,5.577,0.509,4.996,1.015c2.229-0.16,5.169-0.013,8.467,0.203
					c3.296,0.194,6.952,0.464,10.607,0.063c1.616,0.17-1.375,0.209-0.512,0.382c1.854-0.265,4.091-0.321,8.243-0.118l-0.469,0.08
					c11.659,0.065,16.66,0.5,29.759,1.034l-0.975-0.575c2.813,0.105,3.409,0.291,4.729,0.451c3.222-0.842-7.906-0.139-4.969-1.046
					c3.741,1.208,19.845,0.126,22.377,1.642c4.33,0.057-1.274-0.774,3.055-0.728l1.15,0.427l1.089-0.538
					c2.84,0.113,4.276,0.668,4.385,1.036c-0.688-0.052-1.958,0.079-2.696,0.098c3.686,0.563,10.377-0.05,11.643,0.133l-4.162-0.327
					c11.812-0.326,26.244,0.415,37.652-0.594l-0.869-0.39c8.71-0.721,6.982,0.432,16.552,0.094l-0.348,0.099
					c1.914-0.402,4.47-0.614,7.088-0.578c-2.415,0.479,4.552,0.925,1.386,1.46c9.446-0.825,4.671-0.644,10.906-2.205l1.443,0.68
					c2.125-0.628,2.301-0.965,7.08-1.169c-3.917,0.615,3.056,1.051-1.331,1.859c10.036,1.509,14.885-1.618,19.496,0.622
					c4.597-1.986-8.685-1.05-6.104-1.482c-2.164-0.622,3.792-1.483,6.942-1.306c3.204,0.02,5.458,2.49,13.517,2.386
					c-0.8,0-0.855,0.146-1.654,0.146c3.018,0.475,5.905-0.73,9.608,0.035c2.07-1.198,4.805,0.013,5.396-1.497l-7.394,0.43
					c4.19-0.447,8.115-2.229,15.02-1.45c-0.538,0.301-2.589,0.717-4,0.958c2.021,0.416,3.887-0.338,5.981,0.085
					c-0.592,1.486-8.983,0.442-13.467,1.632c2.169,0.606,8.487-1.188,6.239,0.457c3.234-2.096,7.939,0.128,13.391-1.505
					l-0.357,0.871c0.865-0.147,2.651-0.595,4.241-0.6l-2.875,1.18c4.416-1.037,8.521,0.636,12.756,0.012
					c-8.873,0.244-1.996-0.96-5.75-1.497c10.94-1.319,6.302,2.061,18.551,1.287c-1.659,0.17-6.229-0.294-3.636-0.734
					c2.333,0.105,5.414,0.314,6.847,0.673c8.116-0.422-1.25-0.745,2.204-1.323c2.768,0.846,3.985-0.485,7.542-0.847l0.027,0.737
					c9.252,0.189,2.451-1.56,10.779-1.206l-3.518,1.052l4.341-0.369l-0.896,0.806c4.723-0.735,6.194-0.611,10.823-0.563
					c-1.078-0.413,0.602-1.166,4.699-1.274c2.797,0.285-1.563,0.618,4.245,0.375c-1.311,0.396-2.746,0.921-5.274,0.438
					c-0.259,0.212-1.292,0.429-1.559,0.633c3.009,0.314,7.563-0.177,9.666-0.25c-0.811,0.009-1.777,0.014-2.273-0.057l8.419-1.025
					c1.325,0.169,0.274,0.353-0.767,0.548c1.705-0.116,2.883-0.396,5.391-0.507c-0.647,0.44-0.493,0.866-4.04,1.2l8.021-0.748
					c0.535,0.16,4.116,0.333,3.075,0.512c4.449,0.034,10.909-1.096,16.807-0.975c0.305-0.075,0.92-0.152,2.175-0.23
					c5.542-0.062,10.451,0.17,17.02-0.372l3.727,0.432c5.145-0.215-5.046-0.538,3.52-0.876c6.063-0.244,2.265,0.381,4.393,0.477
					c3.017-0.3,8.26-0.84,13.83-0.523C397.217,371.995,395.771,371.94,394.047,372.002z M457.502,371.462
					c-1.229,0.079-3.683,0.305-4.581,0.093C454.319,371.147,455.405,371.337,457.502,371.462z M553.965,370.075
					c-0.91,0.265-2.325,0.177-3.928-0.065C551.196,369.924,552.509,369.911,553.965,370.075z M821.944,347.653
					c-0.049,0.023-0.088,0.034-0.125,0.062C819.056,347.52,820.035,347.604,821.944,347.653z M827.654,347.675
					c0.563-0.182,0.519-0.319,0.268-0.448c-0.386,0.286-1.655,0.4-3.113,0.438C825.227,347.9,825.971,348.026,827.654,347.675z
					 M216.754,367.913l1.11,0.237C215.362,368.432,216.063,368.186,216.754,367.913z"/>
				<path fill="#FFFFFF" d="M543.045,371.285c-0.352-0.11-0.449-0.238-0.532-0.366C542.032,371.045,542.022,371.181,543.045,371.285
					z"/>
				<path fill="#FFFFFF" d="M354.59,372.984h-0.193c-0.105,0.026-0.162,0.06-0.194,0.079L354.59,372.984z"/>
				<path fill="#FFFFFF" d="M740.161,363.722c-1.178-0.07-1.843-0.223-2.289-0.396C737.824,363.592,738.369,363.783,740.161,363.722
					z"/>
				<path fill="#FFFFFF" d="M857.729,344.145l-3.637,0.458c1.765-0.15,2.398,0.018,3.303,0.111
					C857.305,344.502,856.59,344.227,857.729,344.145z"/>
				<path fill="#FFFFFF" d="M889.638,347.568c0.523-0.132,1.131-0.068,1.646-0.197l-0.165-0.373
					C888.852,347.109,887.288,347.571,889.638,347.568z"/>
				<path fill="#FFFFFF" d="M861.269,347.021c0.329,0.76,2.603,0.338,5.146,0.025l-0.447,0.025
					C866.661,345.953,863.959,346.48,861.269,347.021z"/>
				<path fill="#FFFFFF" d="M867.007,346.975c0.779-0.088,1.588-0.16,2.354-0.18C869.642,346.357,868.402,346.775,867.007,346.975z"
					/>
				<path fill="#FFFFFF" d="M834.839,346.627c1.226,0.133,0.694-1.112,1.397-0.817C837.53,344.664,828.238,347.592,834.839,346.627z
					"/>
				<polygon fill="#FFFFFF" points="863.469,349.423 862.505,348.537 861.116,349.41 				"/>
				<path fill="#FFFFFF" d="M843.293,350.179l4.096-0.018c-0.071-0.167,0.438-0.302,1.068-0.419
					C845.943,349.888,843.179,349.888,843.293,350.179z"/>
				<path fill="#FFFFFF" d="M848.457,349.736c1.313-0.071,2.557-0.184,3.271-0.396C851.022,349.402,849.502,349.544,848.457,349.736
					z"/>
				<polygon fill="#FFFFFF" points="857.915,350.127 856.699,350.016 853.818,350.156 				"/>
				<path fill="#FFFFFF" d="M799.486,353.455l-4.424,0.685c-0.434,0.416,0.795,0.546,2.438,0.257
					C798.552,354.047,800.189,353.764,799.486,353.455z"/>
				<path fill="#FFFFFF" d="M813.108,355.296c-1.216-0.119-1.313-0.348-2.008-0.646l-0.055,1.349L813.108,355.296z"/>
				<path fill="#FFFFFF" d="M800.168,356.744c-0.421,0.417-6.386,1.66-0.76,1.068C799.838,357.401,804.271,356.697,800.168,356.744z
					"/>
				<polygon fill="#FFFFFF" points="733.074,360.354 734.205,360.246 733.918,357.938 				"/>
				<path fill="#FFFFFF" d="M674.194,369.333c5.308,0.275,1.199-1.404,5.998-0.975c1.218-0.58-3.922-0.352-2.669-0.861
					C674.357,368.206,672.672,367.975,674.194,369.333z"/>
				<path fill="#FFFFFF" d="M677.523,367.503c0.507-0.112,1.043-0.243,1.61-0.416C678.22,367.269,677.787,367.4,677.523,367.503z"/>
				<polygon fill="#FFFFFF" points="9.457,372.139 6.059,372.245 8.251,372.247 				"/>
				<path fill="#FFFFFF" d="M2.94,372.686l-0.801-0.132l-2.037,0.236C0.869,372.752,2.356,372.67,2.94,372.686z"/>
				<path fill="#FFFFFF" d="M466.943,372.539l0.258-0.123c-0.524-0.143-1.32-0.163-2.914-0.193L466.943,372.539z"/>
				<polygon fill="#FFFFFF" points="420.877,372.111 421.67,372.113 420.188,371.745 				"/>
				<path fill="#FFFFFF" d="M382.231,373.049c1.576-0.05,3.43-0.109,5.014-0.163C383.808,373.03,381.801,372.544,382.231,373.049z"
					/>
			</g>
		</g>
	</g>
</g>
</svg>
