<?xml version="1.0" encoding="utf-8"?>
<!-- Generator: Adobe Illustrator 16.0.0, SVG Export Plug-In . SVG Version: 6.00 Build 0)  -->
<!DOCTYPE svg PUBLIC "-//W3C//DTD SVG 1.1//EN" "http://www.w3.org/Graphics/SVG/1.1/DTD/svg11.dtd">
<svg version="1.1" id="Calque_1" xmlns="http://www.w3.org/2000/svg" xmlns:xlink="http://www.w3.org/1999/xlink" x="0px" y="0px"
	 width="1024px" height="320px" viewBox="0 -10 1024 320" enable-background="new 0 -10 1024 320" xml:space="preserve">
<g>
	<rect y="-10" fill="#82929A" width="1023.846" height="320"/>
</g>
<path fill="none" stroke="#FFFFFF" stroke-width="0.25" stroke-miterlimit="10" d="M0.209,289.304c0,0,240.321,0,392.261,0
	c209.611,0,344.273-38.463,631.587-38.463"/>
<g>
	<g>
		<g>
			<g>
				<path fill="#FFFFFF" d="M1022.65,272.436c1.514,0.04,0.973-0.049,1.195-0.054
					C1021.316,272.322,1022.715,272.464,1022.65,272.436z"/>
				<polygon fill="#FFFFFF" points="997.678,272.47 998.12,272.382 994.438,272.599 				"/>
				<path fill="#FFFFFF" d="M974.318,272.402c2.22,0.546,8.464-0.086,12.628,0.116l0.686,0.107l1.873-0.354
					C984.447,272.279,977.883,272.558,974.318,272.402z"/>
				<path fill="#FFFFFF" d="M961.828,270.997c0.775,0.26-2.692,0.174,2.907,0.12c-0.277-0.037-0.363-0.048-0.526-0.071
					C963.701,271.036,963.008,271.02,961.828,270.997z"/>
				<path fill="#FFFFFF" d="M964.207,271.046C966.671,271.069,962.594,270.817,964.207,271.046L964.207,271.046z"/>
				<path fill="#FFFFFF" d="M952.839,271.036l3.237-0.196c-0.686-0.169-3.574-0.252-2.502-0.349
					C950.25,270.568,950.939,270.752,952.839,271.036z"/>
				<path fill="#FFFFFF" d="M949.776,271.572l1.681-0.136C951.159,271.375,950.715,271.354,949.776,271.572z"/>
				<path fill="#FFFFFF" d="M955.014,271.251l-3.557,0.186c0.471,0.116,0.528,0.346,1.632-0.066
					C952.803,271.575,953.502,271.378,955.014,271.251z"/>
				<path fill="#FFFFFF" d="M957.033,271.376c1.822,0.166,4.175,0.27,0.929,0.478C964.159,271.8,963.237,271.358,957.033,271.376z"
					/>
				<path fill="#FFFFFF" d="M973.138,272.982l2.438,0.146l2.098-0.192C976.621,273.031,972.984,272.811,973.138,272.982z"/>
				<path fill="#FFFFFF" d="M932.621,270.915c-0.195,0.18,1.104,0.448,1.354,0.667l2.39-0.244
					C935.132,271.239,932.793,271.171,932.621,270.915z"/>
				<path fill="#FFFFFF" d="M933.979,271.582l-3.571,0.376C933.607,271.92,934.186,271.764,933.979,271.582z"/>
				<path fill="#FFFFFF" d="M949.222,272.394c0,0,1.47-0.2,2.938-0.337c1.469-0.126,2.936-0.257,2.936-0.257
					s-1.753,0.131-3.504,0.259c-1.751,0.187-3.501,0.372-3.501,0.372L949.222,272.394z"/>
				<polygon fill="#FFFFFF" points="918.924,271.117 920.941,270.644 917.346,271.371 				"/>
				<path fill="#FFFFFF" d="M909.846,271.358c1.486-0.412-2.095-0.617-0.513-0.882c-2.467,0.105-4.563,0.474-6.443,0.822
					C904.896,271.086,907.048,271.095,909.846,271.358z"/>
				<path fill="#FFFFFF" d="M899.725,271.813c1.006-0.119,2.037-0.314,3.164-0.519C901.822,271.41,900.771,271.562,899.725,271.813z
					"/>
				<path fill="#FFFFFF" d="M924.301,272.003c-0.283-0.105-0.827-0.384-2.844-0.472l1.43,0.497
					C923.318,272.021,923.803,272.013,924.301,272.003z"/>
				<path fill="#FFFFFF" d="M922.939,272.045l-0.056-0.021c-1.525,0.023-2.591,0.035-3.045,0.04
					C920.23,272.066,921.164,272.057,922.939,272.045z"/>
				<path fill="#FFFFFF" d="M924.655,271.998c-0.131,0.001-0.229,0.005-0.354,0.005
					C924.438,272.053,924.521,272.068,924.655,271.998z"/>
				<path fill="#FFFFFF" d="M939.825,272.229c-2.101,0.309-6.47,0.737-2.212,1.017C939.109,272.874,936.67,272.71,939.825,272.229z"
					/>
				<path fill="#FFFFFF" d="M926.429,272.601l3.812,0.019c-0.078-0.128-0.774-0.306,0.265-0.472L926.429,272.601z"/>
				<polygon fill="#FFFFFF" points="924.576,272.817 926.429,272.601 925.017,272.597 				"/>
				<path fill="#FFFFFF" d="M906.276,272.212c-1.636,0.288-3.434,0.359-5.461,0.45c2.184,0.063,4.437,0.065,6.574,0.005
					C907.684,272.481,908.608,272.137,906.276,272.212z"/>
				<path fill="#FFFFFF" d="M914.376,272.181c-0.114,0.015-0.259,0.027-0.365,0.038
					C914.236,272.262,914.418,272.272,914.376,272.181z"/>
				<path fill="#FFFFFF" d="M880.824,273.365c0.109,0.033,0.211,0.066,0.328,0.102c0.021-0.038,0.039-0.075,0.063-0.115
					L880.824,273.365z"/>
				<path fill="#FFFFFF" d="M907.764,272.767c1.642,0.067,2.612-0.1,3.534-0.293c-1.221,0.088-2.516,0.155-3.905,0.197
					C907.259,272.755,907.237,272.81,907.764,272.767z"/>
				<path fill="#FFFFFF" d="M894.156,272.219c0.858,0.11,1.833,0.191,2.851,0.265C896.164,272.313,894.451,272.053,894.156,272.219z
					"/>
				<path fill="#FFFFFF" d="M913.455,272.079c0.081-0.011,0.155-0.022,0.241-0.028C913.155,271.941,913.225,271.999,913.455,272.079
					z"/>
				<path fill="#FFFFFF" d="M913.455,272.079c-0.84,0.102-1.497,0.254-2.157,0.391c0.993-0.067,1.915-0.152,2.712-0.251
					C913.805,272.186,913.604,272.131,913.455,272.079z"/>
				<path fill="#FFFFFF" d="M875.02,277.882c0.252-0.636,4.515-1.444,8.25-1.04c3.619-0.671,1.132-2.437-2.115-3.378
					c-0.104,0.264-0.087,0.501-3.822,1.051c1.335,0.265,8.37,0.309,5.235,1.02c-4.95,0.599-4.081,0.025-6.521-0.157
					c2.096,0.636-6.256,1.472-5.107,2.549l4.33-0.671C875.366,277.424,873.803,277.803,875.02,277.882z"/>
				<path fill="#FFFFFF" d="M888.313,273.176l1.544-0.127c-1.771-0.055-3.044-0.199-5.395-0.556
					c-2.556,0.408-3.076,0.651-3.243,0.862l7.613-0.291L888.313,273.176z"/>
				<path fill="#FFFFFF" d="M896.804,272.855c-1.177,0.639-4.881,1.021-2.564,1.614c4.535-0.197,3.149-0.616,5.854-0.956
					c-7.323,0.364,2.086-0.392-3.225-0.587c1.436-0.143,2.729-0.204,3.951-0.262c-1.325-0.04-2.604-0.1-3.811-0.186
					c0.067,0.017,0.115,0.022,0.172,0.035l0.035-0.004l-0.007,0.012c0.32,0.066,0.426,0.109,0.068,0.074
					c-0.024,0.01-0.117,0.01-0.153,0.017c-0.044,0.085-0.179,0.163-0.319,0.24c-2.129-0.067-0.343-0.153,0.319-0.24
					c0.021-0.028,0.079-0.058,0.085-0.093l-0.028-0.008l-7.325,0.529C891.413,273.092,893.356,273.02,896.804,272.855z"/>
				<path fill="#FFFFFF" d="M933.738,274.436c-0.229-0.033-0.223-0.071-0.239-0.108C933.027,274.408,932.85,274.456,933.738,274.436
					z"/>
				<path fill="#FFFFFF" d="M930.714,274.249c0.53-0.092,0.965-0.307,2.698-0.318c1.509,0.092,0.001,0.234,0.087,0.396
					c1.038-0.176,3.644-0.484,0.354-0.611l-0.514,0.088c-2.959-0.061-6.772-0.579-6.264-0.67
					C927.957,273.572,928.729,273.876,930.714,274.249z"/>
				<path fill="#FFFFFF" d="M913.566,273.81l-6.097,0.479l3.132,0.385l-0.171-0.291C913.914,274.378,913.146,274.044,913.566,273.81
					z"/>
				<polygon fill="#FFFFFF" points="880.106,273.074 880.875,272.351 877.406,273.489 				"/>
				<polygon fill="#FFFFFF" points="872.175,273.541 872.435,272.913 870.358,273.384 				"/>
				<path fill="#FFFFFF" d="M425.051,296.779l-1.795,0.068C424.101,296.815,424.646,296.793,425.051,296.779z"/>
				<path fill="#FFFFFF" d="M438.043,296.744l0.317-0.115C437.759,296.695,437.512,296.742,438.043,296.744z"/>
				<path fill="#FFFFFF" d="M677.668,285.252c-2.643-0.529-5.604-1.388-5.251-0.606l0.84,0.733
					C675.072,285.138,676.475,285.15,677.668,285.252z"/>
				<path fill="#FFFFFF" d="M544.497,294.473c0.25,0.047,0.51,0.097,0.768,0.145c0.634-0.201,1.227-0.392,1.758-0.562
					C546.261,294.179,545.396,294.321,544.497,294.473z"/>
				<path fill="#FFFFFF" d="M542.695,296.709l-3.453-0.29C540.018,296.523,541.129,296.621,542.695,296.709z"/>
				<path fill="#FFFFFF" d="M354.098,297.95l-2.094,0.375C355.281,298.236,353.84,298.114,354.098,297.95z"/>
				<path fill="#FFFFFF" d="M790.992,278.432c-2.273-0.171-4.072-0.186-5.648-0.127C788.089,278.6,790.326,279.153,790.992,278.432z
					"/>
				<path fill="#FFFFFF" d="M430.162,294.194c-1.1,0.059-1.567,0.111-1.537,0.164C429.756,294.306,430.393,294.252,430.162,294.194z
					"/>
				<path fill="#FFFFFF" d="M778.844,278.737c0.403,0.053,0.795,0.066,1.202,0.111c1.636-0.247,3.283-0.468,5.298-0.546
					C783.315,278.086,781.006,278.02,778.844,278.737z"/>
				<path fill="#FFFFFF" d="M96.789,300.47c-0.189-0.024-0.411-0.05-0.583-0.07C96.151,300.47,96.41,300.477,96.789,300.47z"/>
				<path fill="#FFFFFF" d="M21.788,296.947c0.739-0.027,1.942-0.07,3.077-0.109C24.311,296.838,23.385,296.868,21.788,296.947z"/>
				<path fill="#FFFFFF" d="M840.224,274.823C841.903,274.688,840.484,274.729,840.224,274.823L840.224,274.823z"/>
				<path fill="#FFFFFF" d="M848.6,277.275c-0.354,0.102-0.617,0.223-0.646,0.392C848.076,277.481,848.305,277.355,848.6,277.275z"
					/>
				<path fill="#FFFFFF" d="M762.479,284.969c-0.048,0.002-0.089,0.004-0.146,0.008
					C762.845,285.105,762.756,285.082,762.479,284.969z"/>
				<path fill="#FFFFFF" d="M842.778,275.031c-0.643-0.06-1.372-0.098-2.167-0.107C840.963,274.961,841.623,275,842.778,275.031z"/>
				<path fill="#FFFFFF" d="M842.412,274.699c0.585,0,1.043-0.005,1.479-0.005C844.096,274.561,843.903,274.491,842.412,274.699z"/>
				<path fill="#FFFFFF" d="M837.882,274.983c0.96-0.06,1.86-0.073,2.729-0.06c-0.336-0.036-0.479-0.069-0.391-0.101
					C839.731,274.856,839.036,274.906,837.882,274.983z"/>
				<path fill="#FFFFFF" d="M234.654,298.71c-0.111-0.021-0.238-0.04-0.36-0.063C232.595,298.949,233.341,298.897,234.654,298.71z"
					/>
				<path fill="#FFFFFF" d="M634.273,295.208c0.077-0.019,0.116-0.03,0.188-0.042c-0.08-0.006-0.18-0.014-0.251-0.018
					L634.273,295.208z"/>
				<path fill="#FFFFFF" d="M628.246,295.926c2.543-0.938,4.014-0.878,5.966-0.78l-2.079-1.999c0,0-0.973,0.697-1.938,1.398
					C629.22,295.232,628.246,295.926,628.246,295.926z"/>
				<path fill="#FFFFFF" d="M393.942,297.054l4.245,0.168c-5.125,0.396-8.832,0.345-4.846,0.59c0.599-0.772,16.5-0.246,17.089-0.97
					l2.801,0.137c-0.804,0.023-0.93,0.023-1.723,0.04c5.444,0.32,4.043-0.555,11.055-0.479c2.444,0.042,4.151,0.143,2.484,0.236
					l5.446-0.21c1.585,0.009,1.198,0.141-0.379,0.133l8.308-0.094l-0.062,0.023c1.185-0.124,3.872-0.326,5.181-0.411
					c2.111,0.105-1.059,0.085-0.517,0.183l4.598-0.208c1.875,0.208-1.938,0.421-5.113,0.396c4.299,0.797,3.815-0.22,13.09,0.269
					l-4.342,0.103c2.801,0.482,6.192,0.317,11.106,0.675c-1.167-0.194-9.837-0.825-4.849-1.03c1.409,0.066,3.264,0.109,5.955-0.068
					c0.026,0.321,2.657,0.25,5.948,0.244l-0.222,0.445c3.559-0.104,3.272-0.336,5.366-0.532c3.967,0.06,4.791,0.438,5.729,0.766
					c6.354,0.139-4.392-0.641,3.125-0.673c5.283,0.223,8.991,0.066,15.308-0.239c3.699,0.216-0.644,0.341,0.685,0.51l3.272-0.429
					c0.802,0.018,0.544,0.155,0.415,0.229c2.76-0.161,0.221-0.581,4.561-0.732c1.162-0.699,8.93,1.052,14.289,0.278
					c1.328,0.199-0.634,0.411-0.223,0.675c7.362-0.505,6.313-0.348,12.354-1.133l5.166,0.481c-3.799-0.519,1.026-1.244,5.255-1.948
					c-1.346-0.248-2.501-0.459-3.27-0.553l6.748-0.642c0.818,0.104,0.146,0.406-0.953,0.774c0.458-0.084,0.893-0.164,1.23-0.231
					c2.426,0.229,1.184,0.738-0.541,1.227c-0.822-0.146-1.646-0.289-2.445-0.432c-1.659,0.522-3.214,1.077-2.854,1.522
					c0.437-0.098,1.281-0.188,2.213-0.244c-0.435,0.137-0.709,0.255-0.504,0.332c0.229,0.079,0.934-0.105,2.032-0.328l1.558,0.865
					l0.365-0.361l8.864,0.451c6.313-1.016,11.784-2.608,21.818-3.318c-2.473,0.823-0.504,1.256-0.61,2.162
					c-2.771-0.894-7.774,0.548-12.987,0.432c2.717,0.05,2.131,0.467,1.441,0.624l9.271-0.997c-0.19,0.733,1.986,0.516,4.428,0.787
					c-1.88-1.436,6.896-1.113,10.661-1.66c0.25,0.507-0.641,1.042-5.258,1.01c5.126,1.05,6.521-1.915,11.548-1.052
					c-1.128,0.039-1.732-0.026-2.173,0.245c2.615-0.518,9.061-0.297,7.563,0.198l-1.126,0.035c7.482,0.029,22.77-0.479,23.83-1.914
					c0.08,0.18-0.918,1.71-1.356,2.002c0,0,3.288-1.264,6.583-2.522c3.281-1.35,6.563-2.694,6.563-2.694
					c-1.126,1.277,3.505,4.019-2.667,4.973c1.784,0.097,3.994,0.215,7.73-0.376c-1.225-0.131-3.102-1.664-1.445-1.846
					c4.609,1.184,3.188,0.597,8.854,1.55c-1.831-0.192,0.104-2.243,2.979-2.317c-0.436,0.316,0.326,1.949-0.715,2.196l7.066-2.264
					c-1.771,0.433-0.24,1.68,1.388,2.172c-0.758-0.355,6.19-0.219,8.092-0.491l-3.058-0.333c8.099-0.029,7.846-3.172,15.856-3.447
					c-0.944,0.474-2.261,2.704,1.827,2.787c1.816-1.115,8.002-5.442,15.033-6.644l1.392,0.551l5.396-0.98
					c-3.285,1.812-12.601,5.653-17.729,7.16c3.054,0.354,0.881,0.679,5.411,0.434c1.63,0.512-2.422,0.967-3.754,1.052l10.57-0.056
					c-0.539-1.232,7.993-1.594,7.531-2.636l-11.384,1.793c-0.53-1.231,6.427-3.811,13.899-3.999c1.929,0.392-1.287,2.347-1.107,2.76
					c0.943-0.491,7.036-1.265,7.742-0.995l-3.129,0.872c4.186,0.236,6.679-2.106,11.745-1.19c1.729-0.024,5.251,1.342,5.501,0.56
					c-2.906-1.3-3.736-5.8-1.935-7.029c0.608,0.062,9.124,0.82,11.141,1.426c2.911,0.976-4.077,3.025-1.603,3.868
					c0.08-0.36,1.621-0.897,2.267-1.078c1.825,0.188-0.683,1.143,3.239,0.734c0.568-1.354,8-0.399,1.784-1.227
					c3.821-0.62,4.104,0.012,8.616-0.338c-1.495-0.753,3.854-3.144,7.684-3.759c-0.206,0.348,0.688,0.728,1.122,0.896
					c7.89-0.374,12.156-0.066,19.498-0.597c0.699,0.263,4.271,0.384,2.798,1.043c1.039-0.303,1.979-0.81,4.243-1.003
					c4.461,0.784-5.036,0.541-1.603,1.623c0.23-0.764,5.782-1.456,8.977-2.147c-1.077-1.066-7.468,0.314-10.666,1.018
					c-0.127-1.59,5.377-3.653,13-4.884c6.077-0.799,2.717,0.82,3.761,0.531c11.479-0.521,9.575-3.331,19.171-2.851
					c3.845,0.709,0.307,1.888,1.189,2.523c-4.941,0.71-7.671-0.08-11.039,0.189l4.185,0.171c-1.56,0.431-4.857,0.912-6.687,0.758
					c3.228,0.674,19.363-1.241,28.266-1.001c1.552-0.414,4.236-0.9,2.933-1.187l-2.791,0.3c-2.624-0.593,5.197-1.344,1.629-1.481
					c3.722-0.746,7.882-1.779,13.197-1.664l1.063,0.955c-0.134-0.289-3.497-0.406-4.963-0.009c2.175-0.568,8.198,0.887,10.528-0.562
					l-3.752-0.479c3.741-0.722,8.341-2.005,13.054-1.931c-2.191-0.851-1.075,0.164-4.479-0.796
					c2.978,1.265-12.008,0.539-7.271,1.808c-3.506-1.172-5.954-0.257-10.505-1.206c0.162,0.332,1.626,0.569-2.323,0.599
					c-0.17,0.112-0.581,0.261-0.844,0.347c-0.121-0.006-0.163-0.008-0.267-0.011c0.08,0.011,0.14,0.018,0.22,0.028
					c-0.167,0.06-0.182,0.07,0.082,0.01c0.947,0.102,1.721,0.244,2.043,0.417c-1.903,0.884-8.166,1.21-10.252,1.745
					c-2.352-0.035,0.944-0.457-0.354-0.759l-3.119,0.799c-0.366-0.765-6.291-0.918-0.826-1.716l-4.948,0.266
					c-2.945-0.265-6.965-0.213-9.415,0.282c-2.345-0.035-5.829,1.266-3.84,0.503l-7.726,0.994l-0.087-0.202
					c-7.661,0.379-15.652,2.408-24.512,1.46c-2.563,0.378-5.206,0.837-9.532,0.863l-0.893-0.688
					c-3.288,0.46-9.979-0.139-11.347,0.727c-3.699-1.796-16.064,0.567-21.899,0.599l-0.157,0.993
					c-4.004,0.204-7.825,0.732-12.765,1.456l0.356,0.839c-4.239,0.97-11.046,0.149-17.813,0.657
					c0.438-0.341,2.166-0.359,3.395-0.249c-8.203-1.416-17.006,2.281-24.424,1.313c-1.814,0.396-3.141,0.363-4.437,0.226
					c0.171-0.01,0.32-0.032,0.448-0.066c-0.187,0.012-0.467,0.022-0.751,0.032c-0.813-0.098-1.652-0.214-2.563-0.296
					c0.776,0.156,1.52,0.277,2.16,0.319c-1.412,0.095-3.548,0.311-5.638,0.629l-0.937-0.821c-0.171,0.021-0.31,0.034-0.484,0.054
					c-2.073-0.207-1.635,0.498-0.504,1.089c-1.049,0.195-2.008,0.418-2.751,0.664c-1.739-1.296-5.486,0.753-7.835-0.59
					c-1.383,0.789-10.521,1.107-11.581,2.628c-0.077-0.188-0.7-0.248,0.434-0.32c-2.35-0.047-4.691-0.087-6.776,0.428l-1.033-0.993
					l-5.053,1.658c-3.133-0.47-4.433-0.759-1.381-1.717c-7.396,1.621-6.021,0.744-12.311,2.152l0.281-0.66
					c-2.263,0.102-5.851,1.077-7.233,0.587c-5.107-1.043-25.073,0.617-38.102,0.073c2.564,1.6-6.063-0.518-6.546,0.799
					c-0.771-0.362-2.588-0.509-0.488-0.935c-6.623,0.646-9.979-0.162-14.536,1.051c-0.767-0.332,1.408-0.6,0.729-0.782
					c-0.529,0.103-2.104,0.409-2.795,0.226c-0.683-0.182,0.963-0.346,2.01-0.556c-6.772,0.391-7.438,1.494-7.91,2.522
					c-3.444-0.354-5.155-0.203-7.623,0.517c-1.203-0.276-3.205-0.522,1.005-0.802c-2.366,0.111-14.484-0.039-14.718,0.677
					c-0.746-0.164-3.314,0.017-3.938,0.104c-5.321,0.061-5.791,0.012-11.015,0.172l1.449,0.072
					c-2.052,0.804-4.341,0.239-8.553,0.399l0.119-0.073c-9.666-0.334-4.167,0.292-13.703-0.087l0.522,0.391
					c-0.879,0.86-8.447-0.374-13.976,0.045l2,0.176c-3.02,0.289-8.452-0.906-11.485-0.911c-0.661-0.047,1.043-0.119,1.968-0.188
					c-7.944-0.243-1.025,0.467-6.943,0.672c-1.093-0.205,1.403-0.604-2.581-0.561c-1.984-0.116-11.547,0.909-16.985,0.591
					c1.198,0.138,2.388,0.279-0.36,0.43c-4.214,0.103-11.394-0.412-15.197,0.092c-0.536-0.031-0.738-0.067-0.759-0.104
					c-3.22,0.158-10.469,0.293-12.409,0.548c-2.977-0.867-20.028,0.553-19.956-0.29l-9.909,0.066l0.26-0.085
					c-6.334-0.061-8.573,0.151-10.799,0.377c-1.466-0.064-0.394-0.15-0.274-0.198c-9.254-0.198-10.176-0.199-17.934,0.314
					l-0.808-0.348c-2.103,0.228-13.381-0.672-22.458-0.301c0.09-0.051,0.277-0.131,0.998-0.184
					c-5.105,0.201-11.219-0.161-16.523-0.438c-5.305-0.266-9.799-0.408-11.667,0.574l-6.737,0.461
					c8.72,0.188-1.295,0.901,2.292,1.251c-3.429,0.153-8.867-0.616-4.654-0.732l0.659,0.107c1.544-1.106-10.835-0.426-10.604-1.233
					c-17.157-0.044-33.885-0.904-49.957-0.999l1.857,1.146l-5.606-0.059c-1.474-0.264-1.979-0.909,2.021-0.859
					c-2.107-0.661-6.706,0.557-6.818,0.816c-7.833-0.458,3.053-1.366,0.65-1.394l-3.26,0.091l0.735,0.138
					c-2.642,0.484-2.874,0.996-7.682,0.953c-3.041-0.22-1.562-0.723-2.762-0.762c0.007-0.083-0.397-0.122-1.837-0.023l-7.063-0.06
					l2.83,0.912c-3.127,0.48-6.64-0.002-3.375,1.032c-4.793-1.602-26.349-0.377-29.29-0.845c-4.38,0.706-8.708,0.723-14.071,0.7
					c1.334,0.17,2.138,1.167-2.486,1.081c1.677-2.063-8.474-0.813-12.221-2.202c3.346,0.908-13.143,0.407-7.893,1.666
					c-3.86-0.111-0.239-0.731-3.171-1.149c-9.178,0.861-20.24-0.175-31.588,0.29c-0.176,0.229,1.728,0.545-0.703,0.916l-6.001-0.999
					c-2.241,0.152-2.054,1.279-6.156,0.61c0.579,0.166,1.446,0.421-0.058,0.513c-11.122-0.331-22.479,0.133-33.88,0.431
					c-11.4,0.338-22.847,0.455-34.138,0.38c3.06,0.088,1.021,0.183-1.314,0.255c1.521,0-0.032,0.24,0.268,0.358
					c0,0-2.364-0.027-4.729-0.057c-2.364-0.002-4.728-0.006-4.728-0.006c-1.722,0.305-10.134,0.348-11.12,0.556l2.993-0.11
					c-3.978,0.268,5.577,0.429,4.996,0.854c2.229-0.135,5.169-0.01,8.467,0.171c3.296,0.164,6.952,0.391,10.607,0.054
					c1.616,0.144-1.375,0.177-0.512,0.322c1.854-0.222,4.091-0.271,8.243-0.099l-0.469,0.067c11.659,0.055,16.66,0.421,29.759,0.871
					l-0.975-0.484c2.813,0.088,3.409,0.244,4.729,0.38c3.222-0.709-7.906-0.117-4.969-0.881c3.741,1.017,19.845,0.105,22.377,1.382
					c4.33,0.047-1.274-0.654,3.055-0.613l1.15,0.36l1.089-0.453c2.84,0.095,4.276,0.562,4.385,0.873
					c-0.688-0.044-1.958,0.066-2.696,0.081c3.686,0.474,10.377-0.042,11.643,0.111l-4.162-0.275
					c11.812-0.275,26.244,0.349,37.652-0.5l-0.869-0.327c8.71-0.607,6.982,0.363,16.552,0.079l-0.348,0.082
					c1.914-0.339,4.47-0.517,7.088-0.487c-2.415,0.405,4.552,0.779,1.386,1.229c9.446-0.694,4.671-0.541,10.906-1.857l1.443,0.573
					c2.125-0.53,2.301-0.813,7.08-0.985c-3.917,0.518,3.056,0.885-1.331,1.566c10.036,1.271,14.885-1.363,19.496,0.524
					c4.597-1.673-8.685-0.885-6.104-1.248c-2.164-0.524,3.792-1.25,6.942-1.099c3.204,0.016,5.458,2.096,13.517,2.008
					c-0.8,0-0.855,0.123-1.654,0.123c3.018,0.401,5.905-0.614,9.608,0.031c2.07-1.01,4.805,0.01,5.396-1.262l-7.394,0.362
					c4.19-0.377,8.115-1.877,15.02-1.222c-0.538,0.254-2.589,0.605-4,0.808c2.021,0.35,3.887-0.284,5.981,0.071
					c-0.592,1.252-8.983,0.372-13.467,1.374c2.169,0.511,8.487-1.002,6.239,0.385c3.234-1.764,7.939,0.109,13.391-1.266
					l-0.357,0.733c0.865-0.125,2.651-0.501,4.241-0.505l-2.875,0.993c4.416-0.874,8.521,0.535,12.756,0.01
					c-8.873,0.206-1.996-0.809-5.75-1.261c10.94-1.111,6.302,1.735,18.551,1.084c-1.659,0.144-6.229-0.247-3.636-0.619
					c2.333,0.09,5.414,0.266,6.847,0.566c8.116-0.355-1.25-0.627,2.204-1.114c2.768,0.712,3.985-0.408,7.542-0.713l0.027,0.622
					c9.252,0.16,2.451-1.313,10.779-1.015l-3.518,0.885l4.341-0.311l-0.896,0.678c4.723-0.62,6.194-0.516,10.823-0.474
					c-1.078-0.348,0.602-0.982,4.699-1.073c2.797,0.24-1.563,0.52,4.245,0.315c-1.311,0.334-2.746,0.777-5.274,0.37
					c-0.259,0.178-1.292,0.361-1.559,0.533c3.009,0.265,7.563-0.149,9.666-0.21c-0.811,0.006-1.777,0.01-2.273-0.047l8.419-0.865
					c1.325,0.142,0.274,0.297-0.767,0.461c1.705-0.097,2.883-0.333,5.391-0.426c-0.647,0.371-0.493,0.729-4.04,1.01l8.021-0.629
					c0.535,0.134,4.116,0.28,3.075,0.43c4.449,0.028,10.909-0.922,16.807-0.82c0.305-0.064,0.92-0.128,2.175-0.195
					c5.542-0.051,10.451,0.144,17.02-0.313l3.727,0.365c5.145-0.182-5.046-0.455,3.52-0.739c6.063-0.207,2.265,0.32,4.393,0.401
					c3.017-0.252,8.26-0.708,13.83-0.441C397.112,297.049,395.665,297.003,393.942,297.054z M457.396,296.6
					c-1.229,0.066-3.681,0.255-4.581,0.078C454.214,296.335,455.3,296.494,457.396,296.6z M553.859,295.431
					c-0.91,0.224-2.325,0.15-3.926-0.054C551.091,295.304,552.403,295.293,553.859,295.431z M821.839,276.551
					c-0.049,0.02-0.088,0.028-0.125,0.051C818.95,276.437,819.93,276.508,821.839,276.551z M827.549,276.568
					c0.563-0.153,0.517-0.269,0.266-0.376c-0.384,0.239-1.655,0.335-3.113,0.366C825.121,276.758,825.865,276.864,827.549,276.568z
					 M216.649,293.612l1.11,0.199C215.257,294.048,215.957,293.84,216.649,293.612z"/>
				<path fill="#FFFFFF" d="M542.939,296.45c-0.35-0.092-0.449-0.2-0.532-0.307C541.927,296.248,541.917,296.363,542.939,296.45z"/>
				<path fill="#FFFFFF" d="M354.485,297.882h-0.193c-0.105,0.022-0.162,0.049-0.194,0.066L354.485,297.882z"/>
				<path fill="#FFFFFF" d="M740.056,290.082c-1.178-0.061-1.843-0.188-2.289-0.336
					C737.719,289.973,738.264,290.133,740.056,290.082z"/>
				<path fill="#FFFFFF" d="M857.624,273.596l-3.637,0.385c1.765-0.127,2.4,0.014,3.303,0.093
					C857.199,273.897,856.484,273.664,857.624,273.596z"/>
				<path fill="#FFFFFF" d="M889.532,276.478c0.525-0.11,1.131-0.057,1.646-0.165l-0.165-0.315
					C888.746,276.092,887.183,276.48,889.532,276.478z"/>
				<path fill="#FFFFFF" d="M861.163,276.018c0.329,0.639,2.603,0.284,5.146,0.021l-0.449,0.022
					C866.556,275.118,863.854,275.563,861.163,276.018z"/>
				<path fill="#FFFFFF" d="M866.901,275.978c0.781-0.074,1.588-0.135,2.355-0.151C869.536,275.459,868.297,275.81,866.901,275.978z
					"/>
				<path fill="#FFFFFF" d="M834.733,275.685c1.226,0.113,0.696-0.936,1.399-0.688C837.425,274.033,828.133,276.498,834.733,275.685
					z"/>
				<polygon fill="#FFFFFF" points="863.363,278.04 862.399,277.294 861.011,278.03 				"/>
				<path fill="#FFFFFF" d="M843.188,278.677l4.094-0.015c-0.071-0.14,0.438-0.254,1.07-0.353
					C845.838,278.432,843.073,278.432,843.188,278.677z"/>
				<path fill="#FFFFFF" d="M848.352,278.305c1.313-0.061,2.555-0.154,3.271-0.333C850.917,278.023,849.396,278.143,848.352,278.305
					z"/>
				<polygon fill="#FFFFFF" points="857.81,278.633 856.594,278.539 853.713,278.658 				"/>
				<path fill="#FFFFFF" d="M799.381,281.436l-4.424,0.576c-0.434,0.351,0.795,0.46,2.438,0.217
					C798.446,281.934,800.084,281.695,799.381,281.436z"/>
				<path fill="#FFFFFF" d="M813.003,282.986c-1.216-0.1-1.313-0.292-2.008-0.544l-0.055,1.134L813.003,282.986z"/>
				<path fill="#FFFFFF" d="M800.063,284.206c-0.421,0.35-6.386,1.397-0.76,0.9C799.732,284.759,804.165,284.166,800.063,284.206z"
					/>
				<polygon fill="#FFFFFF" points="732.969,287.245 734.1,287.155 733.813,285.21 				"/>
				<path fill="#FFFFFF" d="M674.089,294.807c5.308,0.232,1.199-1.183,5.998-0.82c1.218-0.49-3.922-0.295-2.669-0.726
					C674.252,293.857,672.566,293.663,674.089,294.807z"/>
				<path fill="#FFFFFF" d="M677.418,293.265c0.507-0.094,1.043-0.204,1.61-0.35C678.114,293.069,677.682,293.179,677.418,293.265z"
					/>
				<polygon fill="#FFFFFF" points="9.351,297.169 5.953,297.259 8.146,297.261 				"/>
				<path fill="#FFFFFF" d="M2.835,297.63l-0.801-0.11l-2.037,0.198C0.763,297.685,2.251,297.617,2.835,297.63z"/>
				<path fill="#FFFFFF" d="M466.838,297.507l0.258-0.105c-0.526-0.119-1.322-0.137-2.914-0.162L466.838,297.507z"/>
				<polygon fill="#FFFFFF" points="420.772,297.146 421.564,297.149 420.083,296.838 				"/>
				<path fill="#FFFFFF" d="M382.126,297.935c1.576-0.041,3.43-0.092,5.014-0.136C383.702,297.92,381.696,297.511,382.126,297.935z"
					/>
			</g>
		</g>
	</g>
</g>
</svg>
